<svg width="18" height="18" viewBox="0 0 18 18" fill="none" xmlns="http://www.w3.org/2000/svg">
<path d="M7.03028 8.95972C6.77791 8.66685 6.33591 8.63402 6.04305 8.88639C5.75018 9.13876 5.71735 9.58075 5.96972 9.87362L7.03028 8.95972ZM12.0797 6.89242C12.2964 6.57229 12.2126 6.13707 11.8924 5.92034C11.5723 5.70361 11.1371 5.78744 10.9203 6.10758L12.0797 6.89242ZM6.5 9.41667C5.96972 9.87362 5.96974 9.87365 5.96977 9.87368C5.96979 9.8737 5.96982 9.87374 5.96986 9.87378C5.96993 9.87385 5.97001 9.87396 5.97013 9.87409C5.97035 9.87434 5.97066 9.8747 5.97105 9.87516C5.97184 9.87607 5.97297 9.87738 5.97443 9.87908C5.97736 9.88246 5.98161 9.88738 5.98711 9.89373C5.99812 9.90643 6.01412 9.92487 6.03447 9.94822C6.07516 9.9949 6.13331 10.0613 6.20375 10.1409C6.34428 10.2998 6.53522 10.5128 6.73454 10.7269C6.9318 10.9389 7.14595 11.1612 7.33085 11.3341C7.42172 11.4191 7.51893 11.5049 7.61137 11.5736C7.6568 11.6073 7.71622 11.6484 7.78379 11.684C7.82981 11.7082 7.97494 11.7833 8.16667 11.7833V10.3833C8.25934 10.3833 8.3289 10.4031 8.36263 10.4144C8.39952 10.4266 8.42498 10.4394 8.43615 10.4453C8.45736 10.4564 8.46229 10.4617 8.4464 10.4499C8.41618 10.4274 8.36338 10.3829 8.28719 10.3117C8.13799 10.1721 7.94987 9.9778 7.75928 9.77306C7.57074 9.57052 7.38822 9.3669 7.25227 9.21324C7.18446 9.1366 7.12861 9.07281 7.08985 9.02835C7.07048 9.00612 7.0554 8.98875 7.04526 8.97704C7.04018 8.97118 7.03634 8.96674 7.03382 8.96382C7.03256 8.96236 7.03163 8.96128 7.03103 8.96059C7.03074 8.96025 7.03052 8.96 7.0304 8.95985C7.03033 8.95978 7.03029 8.95973 7.03027 8.95971C7.03026 8.9597 7.03026 8.9597 7.03026 8.95969C7.03027 8.9597 7.03028 8.95972 6.5 9.41667ZM8.16667 11.7833C8.30587 11.7833 8.41159 11.7428 8.4627 11.7202C8.52007 11.6948 8.56456 11.6666 8.59273 11.6473C8.64868 11.6088 8.69415 11.5679 8.72385 11.5397C8.78593 11.4808 8.84976 11.4097 8.90864 11.3407C9.02968 11.1988 9.18003 11.0061 9.34408 10.7881C9.6745 10.3489 10.0893 9.7684 10.4926 9.19391C10.897 8.61807 11.2936 8.04281 11.589 7.61188C11.7367 7.39632 11.8593 7.21664 11.9449 7.09079C11.9877 7.02785 12.0214 6.97837 12.0443 6.94456C12.0558 6.92766 12.0646 6.91468 12.0705 6.90589C12.0735 6.9015 12.0758 6.89816 12.0773 6.8959C12.0781 6.89477 12.0786 6.89392 12.079 6.89334C12.0792 6.89305 12.0794 6.89282 12.0795 6.89267C12.0795 6.89259 12.0796 6.89253 12.0796 6.89249C12.0796 6.89245 12.0797 6.89242 11.5 6.5C10.9203 6.10758 10.9203 6.10759 10.9203 6.10761C10.9203 6.10764 10.9203 6.10768 10.9202 6.10775C10.9201 6.10787 10.92 6.10807 10.9198 6.10833C10.9195 6.10886 10.9189 6.10967 10.9182 6.11074C10.9167 6.11289 10.9146 6.11612 10.9117 6.1204C10.9058 6.12896 10.8972 6.14172 10.8859 6.15839C10.8633 6.19172 10.83 6.2407 10.7875 6.30309C10.7026 6.42789 10.5809 6.60629 10.4342 6.82041C10.1405 7.24886 9.74708 7.81943 9.34687 8.38942C8.94571 8.96077 8.54157 9.52609 8.22538 9.94632C8.06613 10.158 7.93625 10.3234 7.84349 10.4321C7.79547 10.4884 7.76901 10.5158 7.76031 10.524C7.75463 10.5294 7.7696 10.5142 7.80028 10.4931C7.81582 10.4824 7.849 10.4608 7.8964 10.4398C7.93755 10.4216 8.03467 10.3833 8.16667 10.3833V11.7833Z" fill="black"/>
<rect x="1.36675" y="1.36663" width="15.2667" height="15.2667" rx="5.3" stroke="black" stroke-width="1.4"/>
</svg>
