<svg width="22" height="17" viewBox="0 0 22 17" fill="none" xmlns="http://www.w3.org/2000/svg">
<path d="M1.00034 8H7.00034C7.26556 8 7.51991 7.89464 7.70745 7.70711C7.89498 7.51957 8.00034 7.26522 8.00034 7V1C8.00034 0.734784 7.89498 0.48043 7.70745 0.292893C7.51991 0.105357 7.26556 0 7.00034 0H1.00034C0.735124 0 0.48077 0.105357 0.293234 0.292893C0.105698 0.48043 0.000340738 0.734784 0.000340738 1V7C0.000340738 7.26522 0.105698 7.51957 0.293234 7.70711C0.48077 7.89464 0.735124 8 1.00034 8ZM2.00034 2H6.00034V6H2.00034V2ZM22.0003 4C22.0003 4.26522 21.895 4.51957 21.7074 4.70711C21.5199 4.89464 21.2656 5 21.0003 5H11.0003C10.7351 5 10.4808 4.89464 10.2932 4.70711C10.1057 4.51957 10.0003 4.26522 10.0003 4C10.0003 3.73478 10.1057 3.48043 10.2932 3.29289C10.4808 3.10536 10.7351 3 11.0003 3H21.0003C21.2656 3 21.5199 3.10536 21.7074 3.29289C21.895 3.48043 22.0003 3.73478 22.0003 4ZM22.0003 14C22.0003 14.2652 21.895 14.5196 21.7074 14.7071C21.5199 14.8946 21.2656 15 21.0003 15H11.0003C10.7351 15 10.4808 14.8946 10.2932 14.7071C10.1057 14.5196 10.0003 14.2652 10.0003 14C10.0003 13.7348 10.1057 13.4804 10.2932 13.2929C10.4808 13.1054 10.7351 13 11.0003 13H21.0003C21.2656 13 21.5199 13.1054 21.7074 13.2929C21.895 13.4804 22.0003 13.7348 22.0003 14ZM2.23534 16.7L0.281341 14.673C0.0968827 14.4823 -0.00426891 14.2262 0.000138202 13.9609C0.00454531 13.6956 0.11415 13.443 0.304841 13.2585C0.495531 13.074 0.751688 12.9729 1.01696 12.9773C1.28223 12.9817 1.53488 13.0913 1.71934 13.282L2.97134 14.582L6.30034 11.289C6.39129 11.1866 6.5023 11.104 6.6265 11.0462C6.7507 10.9885 6.88543 10.9569 7.02234 10.9534C7.15926 10.9499 7.29544 10.9745 7.42243 11.0258C7.54943 11.0771 7.66454 11.1539 7.76063 11.2515C7.85672 11.3491 7.93173 11.4654 7.98102 11.5931C8.03032 11.7209 8.05283 11.8575 8.04718 11.9943C8.04153 12.1312 8.00782 12.2654 7.94816 12.3887C7.8885 12.5119 7.80415 12.6217 7.70034 12.711L3.65434 16.711C3.46792 16.8954 3.21654 16.9992 2.95434 17H2.94234C2.81054 16.9991 2.68023 16.9721 2.55889 16.9206C2.43756 16.8691 2.3276 16.7941 2.23534 16.7Z" fill="#0496FF"/>
</svg>
