<svg width="21" height="20" viewBox="0 0 21 20" fill="none" xmlns="http://www.w3.org/2000/svg">
<path d="M17.5 10H10.5V3C10.5 2.4 10.1 2 9.5 2C4.5 2 0.5 6 0.5 11C0.5 16 4.5 20 9.5 20C14.5 20 18.5 16 18.5 11C18.5 10.4 18.1 10 17.5 10ZM10.5 17.9C6.7 18.5 3.1 15.8 2.6 12C2 8.2 4.7 4.6 8.5 4.1V11C8.5 11.6 8.9 12 9.5 12H16.4C16 15.1 13.6 17.5 10.5 17.9ZM13.5 0C12.9 0 12.5 0.4 12.5 1V7C12.5 7.6 12.9 8 13.5 8H19.5C20.1 8 20.5 7.6 20.5 7C20.5 3.1 17.4 0 13.5 0ZM14.5 6V2.1C16.5 2.5 18 4 18.4 6H14.5Z" fill="#0496FF"/>
</svg>
