<svg width="22" height="19" viewBox="0 0 22 19" fill="none" xmlns="http://www.w3.org/2000/svg">
<path d="M4.77215 14.1899C4.80843 13.682 4.82656 13.4281 4.86619 13.2491C5.11712 12.1151 5.97957 11.3733 7.13837 11.2949C7.32136 11.2825 7.60682 11.3051 8.17775 11.3502C9.02326 11.4171 9.94331 11.4667 10.8122 11.4667C11.7806 11.4667 12.8621 11.4051 13.8467 11.3266C14.4049 11.2822 14.684 11.2599 14.8752 11.274C16.0091 11.3577 16.8755 12.1025 17.1286 13.2109C17.1713 13.3978 17.1895 13.6529 17.2259 14.1629V14.1629C17.267 14.7377 17.2875 15.025 17.2665 15.2635C17.1458 16.6323 16.1105 17.7441 14.7538 17.962C14.5175 18 14.2293 18 13.6531 18H10.8122H8.31986C7.76857 18 7.49293 18 7.26658 17.9652C5.89315 17.7543 4.8443 16.6279 4.73178 15.2429C4.71324 15.0147 4.73288 14.7397 4.77215 14.1899V14.1899Z" stroke="#0496FF" stroke-width="2"/>
<path d="M7.5 4.5C7.5 2.567 9.067 1 11 1V1C12.933 1 14.5 2.567 14.5 4.5V5C14.5 6.65685 13.1569 8 11.5 8V8H10.5V8C8.84315 8 7.5 6.65685 7.5 5V4.5Z" stroke="#0496FF" stroke-width="2"/>
<path d="M19.5 11C19.5 11 21 11.6176 21 13.5C21 15.3824 19.5 16 19.5 16" stroke="#0496FF" stroke-width="2" stroke-linecap="round" stroke-linejoin="round"/>
<path d="M2.5 11C2.5 11 1 11.5 1 13.5C1 15.5 2.5 16 2.5 16" stroke="#0496FF" stroke-width="2" stroke-linecap="round" stroke-linejoin="round"/>
<path d="M17 1.5C17 1.5 19 1.91455 19 4C19 6.08545 17 6.5 17 6.5" stroke="#0496FF" stroke-width="2" stroke-linecap="round" stroke-linejoin="round"/>
<path d="M5 1.5C5 1.5 3 1.83423 3 4C3 6.16576 5 6.5 5 6.5" stroke="#0496FF" stroke-width="2" stroke-linecap="round" stroke-linejoin="round"/>
</svg>
