<svg width="25" height="24" viewBox="0 0 25 24" fill="none" xmlns="http://www.w3.org/2000/svg">
<path d="M21.5 11H20.43C20.2068 9.23998 19.4049 7.60408 18.1504 6.34959C16.8959 5.0951 15.26 4.29319 13.5 4.07V3C13.5 2.73478 13.3946 2.48043 13.2071 2.29289C13.0196 2.10536 12.7652 2 12.5 2C12.2348 2 11.9804 2.10536 11.7929 2.29289C11.6054 2.48043 11.5 2.73478 11.5 3V4.07C9.73998 4.29319 8.10408 5.0951 6.84959 6.34959C5.5951 7.60408 4.79319 9.23998 4.57 11H3.5C3.23478 11 2.98043 11.1054 2.79289 11.2929C2.60536 11.4804 2.5 11.7348 2.5 12C2.5 12.2652 2.60536 12.5196 2.79289 12.7071C2.98043 12.8946 3.23478 13 3.5 13H4.57C4.79319 14.76 5.5951 16.3959 6.84959 17.6504C8.10408 18.9049 9.73998 19.7068 11.5 19.93V21C11.5 21.2652 11.6054 21.5196 11.7929 21.7071C11.9804 21.8946 12.2348 22 12.5 22C12.7652 22 13.0196 21.8946 13.2071 21.7071C13.3946 21.5196 13.5 21.2652 13.5 21V19.93C15.26 19.7068 16.8959 18.9049 18.1504 17.6504C19.4049 16.3959 20.2068 14.76 20.43 13H21.5C21.7652 13 22.0196 12.8946 22.2071 12.7071C22.3946 12.5196 22.5 12.2652 22.5 12C22.5 11.7348 22.3946 11.4804 22.2071 11.2929C22.0196 11.1054 21.7652 11 21.5 11ZM12.5 18C11.3133 18 10.1533 17.6481 9.16658 16.9888C8.17988 16.3295 7.41085 15.3925 6.95672 14.2961C6.5026 13.1997 6.38378 11.9933 6.61529 10.8295C6.8468 9.66557 7.41824 8.59647 8.25736 7.75736C9.09647 6.91824 10.1656 6.3468 11.3295 6.11529C12.4933 5.88378 13.6997 6.0026 14.7961 6.45672C15.8925 6.91085 16.8295 7.67988 17.4888 8.66658C18.1481 9.65327 18.5 10.8133 18.5 12C18.5 13.5913 17.8679 15.1174 16.7426 16.2426C15.6174 17.3679 14.0913 18 12.5 18ZM12.5 9C11.9067 9 11.3266 9.17595 10.8333 9.50559C10.3399 9.83524 9.95542 10.3038 9.72836 10.8519C9.5013 11.4001 9.44189 12.0033 9.55764 12.5853C9.6734 13.1672 9.95912 13.7018 10.3787 14.1213C10.7982 14.5409 11.3328 14.8266 11.9147 14.9424C12.4967 15.0581 13.0999 14.9987 13.6481 14.7716C14.1962 14.5446 14.6648 14.1601 14.9944 13.6667C15.3241 13.1734 15.5 12.5933 15.5 12C15.5 11.2044 15.1839 10.4413 14.6213 9.87868C14.0587 9.31607 13.2956 9 12.5 9ZM12.5 13C12.3022 13 12.1089 12.9414 11.9444 12.8315C11.78 12.7216 11.6518 12.5654 11.5761 12.3827C11.5004 12.2 11.4806 11.9989 11.5192 11.8049C11.5578 11.6109 11.653 11.4327 11.7929 11.2929C11.9327 11.153 12.1109 11.0578 12.3049 11.0192C12.4989 10.9806 12.7 11.0004 12.8827 11.0761C13.0654 11.1518 13.2216 11.28 13.3315 11.4444C13.4414 11.6089 13.5 11.8022 13.5 12C13.5 12.2652 13.3946 12.5196 13.2071 12.7071C13.0196 12.8946 12.7652 13 12.5 13Z" fill="#0496FF"/>
</svg>
