<svg width="20" height="20" viewBox="0 0 20 20" fill="none" xmlns="http://www.w3.org/2000/svg">
<path d="M4.81029 14.3247C4.91274 12.8904 6.21481 11.845 7.64828 11.9584C8.35288 12.0141 9.11959 12.0554 9.84369 12.0554C10.6507 12.0554 11.5519 12.0041 12.3724 11.9387C13.8007 11.8249 15.0863 12.873 15.1884 14.3022V14.3022C15.3118 16.0301 13.9434 17.4998 12.2111 17.4998H9.84369H7.76671C6.04661 17.4998 4.68774 16.0404 4.81029 14.3247V14.3247Z" stroke="black" stroke-width="1.4"/>
<path d="M7.0835 6.24992C7.0835 4.63909 8.38933 3.33325 10.0002 3.33325V3.33325C11.611 3.33325 12.9168 4.63909 12.9168 6.24992V6.66658C12.9168 8.0473 11.7975 9.16659 10.4168 9.16659V9.16659H9.5835V9.16659C8.20278 9.16659 7.0835 8.0473 7.0835 6.66659V6.24992Z" stroke="black" stroke-width="1.4"/>
<path d="M17.0835 11.6665C17.0835 11.6665 18.3335 12.1812 18.3335 13.7498C18.3335 15.3185 17.0835 15.8332 17.0835 15.8332" stroke="black" stroke-width="1.4" stroke-linecap="round" stroke-linejoin="round"/>
<path d="M2.91675 11.6665C2.91675 11.6665 1.66675 12.0832 1.66675 13.7498C1.66675 15.4165 2.91675 15.8332 2.91675 15.8332" stroke="black" stroke-width="1.4" stroke-linecap="round" stroke-linejoin="round"/>
<path d="M15 3.75C15 3.75 16.6667 4.09546 16.6667 5.83333C16.6667 7.57121 15 7.91667 15 7.91667" stroke="black" stroke-width="1.4" stroke-linecap="round" stroke-linejoin="round"/>
<path d="M5 3.75C5 3.75 3.33333 4.02853 3.33333 5.83333C3.33333 7.63813 5 7.91667 5 7.91667" stroke="black" stroke-width="1.4" stroke-linecap="round" stroke-linejoin="round"/>
</svg>
