<svg width="20" height="20" viewBox="0 0 20 20" fill="none" xmlns="http://www.w3.org/2000/svg">
<g opacity="0.6">
<path d="M1.97812 14.4694C2.1361 12.9328 3.52896 11.8282 5.06882 11.9507C5.99602 12.0245 7.0195 12.0837 7.9165 12.0837C8.76843 12.0837 9.6806 12.0303 10.5007 11.9617C11.9782 11.8382 13.3498 12.8297 13.6052 14.2902V14.2902C13.8982 15.9658 12.6087 17.5003 10.9077 17.5003L7.74886 17.5003H4.71336C3.08355 17.5003 1.81143 16.0907 1.97812 14.4694V14.4694Z" stroke="#222628" stroke-width="1.4"/>
<path d="M17.5 5.83301H16.0556L14.1667 5.83301" stroke="#222628" stroke-width="1.4" stroke-linecap="round"/>
<path d="M15.833 4.16699L15.833 5.83366L15.833 7.50033" stroke="#222628" stroke-width="1.4" stroke-linecap="round"/>
<path d="M5 5.41667C5 3.80584 6.30584 2.5 7.91667 2.5V2.5C9.5275 2.5 10.8333 3.80584 10.8333 5.41667V5.83333C10.8333 7.21404 9.71405 8.33333 8.33333 8.33333V8.33333H7.5V8.33333C6.11929 8.33333 5 7.21405 5 5.83333V5.41667Z" stroke="#222628" stroke-width="1.4"/>
</g>
</svg>
