<svg width="20" height="20" viewBox="0 0 20 20" fill="none" xmlns="http://www.w3.org/2000/svg">
<path d="M1.97824 14.4692C2.13623 12.9326 3.52908 11.828 5.06895 11.9505C5.99614 12.0242 7.01963 12.0834 7.91663 12.0834C8.76855 12.0834 9.68072 12.03 10.5008 11.9615C11.9783 11.838 13.3499 12.8295 13.6053 14.2899V14.2899C13.8983 15.9655 12.6088 17.5001 10.9078 17.5001L7.74898 17.5001H4.71348C3.08367 17.5001 1.81155 16.0905 1.97824 14.4692V14.4692Z" stroke="#0496FF" stroke-width="1.4"/>
<path d="M17.5 5.83325H16.0556L14.1667 5.83325" stroke="#0496FF" stroke-width="1.4" stroke-linecap="round"/>
<path d="M15.8333 4.16675L15.8333 5.83341L15.8333 7.50008" stroke="#0496FF" stroke-width="1.4" stroke-linecap="round"/>
<path d="M5 5.41667C5 3.80584 6.30584 2.5 7.91667 2.5V2.5C9.5275 2.5 10.8333 3.80584 10.8333 5.41667V5.83333C10.8333 7.21404 9.71405 8.33333 8.33333 8.33333V8.33333H7.5V8.33333C6.11929 8.33333 5 7.21405 5 5.83333V5.41667Z" stroke="#0496FF" stroke-width="1.4"/>
</svg>
