<svg width="24" height="24" viewBox="0 0 24 24" fill="none" xmlns="http://www.w3.org/2000/svg">
<circle cx="12" cy="12" r="11.5" stroke="#0496FF"/>
<path d="M6.93589 15.548C7.06972 14.3276 8.17221 13.4497 9.39664 13.5396C10.1818 13.5972 11.0663 13.6444 11.8573 13.6444C12.6828 13.6444 13.5982 13.593 14.3941 13.5319C15.5597 13.4426 16.6301 14.2276 16.8444 15.3768V15.3768C17.0987 16.7404 16.0524 17.9999 14.6653 17.9999L11.8573 17.9999H9.13359C7.81714 17.9999 6.79237 16.8566 6.93589 15.548V15.548Z" stroke="#0496FF" stroke-width="1.4"/>
<path d="M9.33398 8.66667C9.33398 7.19391 10.5279 6 12.0007 6V6C13.4734 6 14.6673 7.19391 14.6673 8.66667V9.04762C14.6673 10.31 13.644 11.3333 12.3816 11.3333V11.3333H11.6197V11.3333C10.3573 11.3333 9.33398 10.31 9.33398 9.04762V8.66667Z" stroke="#0496FF" stroke-width="1.4"/>
</svg>
