<svg width="20" height="20" viewBox="0 0 20 20" fill="none" xmlns="http://www.w3.org/2000/svg">
<path d="M14.1663 10.834V16.004C14.1663 16.9242 14.1663 17.3843 13.9157 17.6211C13.8366 17.6958 13.743 17.7537 13.6408 17.791C13.3169 17.9093 12.9054 17.7035 12.0824 17.292L11.6096 17.0556C10.9089 16.7053 10.5585 16.5301 10.1849 16.4953C10.0617 16.4839 9.93768 16.4839 9.81448 16.4953C9.44086 16.5301 9.09048 16.7053 8.38971 17.0556L7.91699 17.292C7.09395 17.7035 6.68243 17.9093 6.35859 17.791C6.25632 17.7537 6.16274 17.6958 6.0836 17.6211C5.83301 17.3843 5.83301 16.9242 5.83301 16.004V10.834" stroke="black" stroke-width="1.4" stroke-linejoin="round"/>
<circle cx="9.99984" cy="7.50033" r="5.13333" stroke="black" stroke-width="1.4"/>
<path d="M9.68461 5.4043C9.84476 5.199 10.1552 5.199 10.3154 5.4043L10.8697 6.11488C10.9159 6.17414 10.9779 6.21918 11.0486 6.24483L11.8957 6.55244C12.1404 6.64131 12.2364 6.93659 12.0906 7.15234L11.5861 7.89912C11.544 7.9614 11.5203 8.03427 11.5178 8.10938L11.487 9.01008C11.4781 9.2703 11.2269 9.45279 10.9767 9.38084L10.1105 9.13179C10.0383 9.11102 9.96169 9.11102 9.88946 9.13179L9.02333 9.38084C8.7731 9.45279 8.52192 9.2703 8.51302 9.01008L8.48224 8.10938C8.47967 8.03427 8.45599 7.9614 8.41392 7.89912L7.90941 7.15234C7.76365 6.9366 7.85959 6.64131 8.10433 6.55244L8.95143 6.24483C9.02207 6.21918 9.08406 6.17414 9.13029 6.11488L9.68461 5.4043Z" stroke="black" stroke-width="1.4"/>
</svg>
