<svg width="20" height="20" viewBox="0 0 20 20" fill="none" xmlns="http://www.w3.org/2000/svg">
<path d="M7.62546 5.33815C7.13663 6.07738 5.99973 7.13887 5.99973 8C5.99973 8.99723 7.06237 11.0054 8.44243 12.3684C9.8225 13.7315 10.9901 14.5 11.9997 14.5C12.6871 14.5 13.0326 12.8421 14.8686 12.8421C16.2457 12.8421 17.9997 14.3421 18.4997 16C18.7864 16.9506 17.6636 17.8088 16.4046 18.4062C15.4175 18.8747 14.3107 19.0432 13.2231 18.9385C11.2366 18.7474 8.4044 17.9623 4.99974 14.7368C1.09822 10.5 0.901237 7.72438 0.999729 5.01385C1.09822 2.30332 3.49973 1 4.31132 1C5.06424 1 7.42416 3.03844 7.76136 4.64692C7.81158 4.88649 7.76047 5.13397 7.62546 5.33815Z" stroke="#0496FF" stroke-width="1.4" stroke-linecap="round" stroke-linejoin="round"/>
</svg>
