<svg width="20" height="18" viewBox="0 0 20 18" fill="none" xmlns="http://www.w3.org/2000/svg">
<path d="M1.66602 5.43978C1.66602 4.56598 1.66602 4.12908 1.75636 3.76932C2.02565 2.69695 2.86297 1.85964 3.93534 1.59034C4.29509 1.5 4.73199 1.5 5.60579 1.5H6.16536C7.00852 1.5 7.80597 1.88327 8.33268 2.54167V2.54167C8.8594 3.20006 9.65684 3.58333 10.5 3.58333H11.8744C14.1696 3.58333 15.3173 3.58333 16.1893 4.04034C16.9098 4.41791 17.4981 5.00617 17.8757 5.72667C18.3327 6.59876 18.3327 7.74639 18.3327 10.0417V10.0417C18.3327 12.3369 18.3327 13.4846 17.8757 14.3567C17.4981 15.0772 16.9098 15.6654 16.1893 16.043C15.3173 16.5 14.1696 16.5 11.8744 16.5H8.86602C5.86623 16.5 4.36634 16.5 3.31487 15.7361C2.9753 15.4893 2.67667 15.1907 2.42995 14.8511C1.66602 13.7997 1.66602 12.2998 1.66602 9.3V5.43978Z" stroke="#0496FF" stroke-width="1.4"/>
<line x1="12.366" y1="13.3" x2="15.1327" y2="13.3" stroke="#0496FF" stroke-width="1.4" stroke-linecap="round"/>
</svg>
