<svg width="18" height="20" viewBox="0 0 18 20" fill="none" xmlns="http://www.w3.org/2000/svg">
<path d="M1.40334 15.3222C1.44 14.9879 1.45832 14.8208 1.48127 14.7015C1.75983 13.2543 2.93043 12.2799 4.40422 12.2686C4.52566 12.2677 4.71526 12.2816 5.09447 12.3095C6.27227 12.3959 7.599 12.4667 8.78541 12.4667C10.0237 12.4667 11.3969 12.3896 12.5907 12.298C12.9564 12.27 13.1392 12.256 13.2581 12.2563C14.6545 12.2601 15.7825 13.1264 16.1463 14.4745C16.1773 14.5893 16.2069 14.748 16.2661 15.0653V15.0653C16.3314 15.4153 16.364 15.5902 16.3767 15.7324C16.524 17.3759 15.3162 18.8298 13.6735 18.9865C13.5314 19 13.3534 19 12.9975 19L8.78541 19H4.69989C4.37599 19 4.21405 19 4.08163 18.9882C2.50997 18.8487 1.31503 17.5155 1.34763 15.938C1.35038 15.8051 1.36803 15.6441 1.40334 15.3222V15.3222Z" stroke="#0496FF" stroke-width="1.4"/>
<path d="M5 5C5 2.79086 6.79086 1 9 1V1C11.2091 1 13 2.79086 13 5V5.57143C13 7.46498 11.465 9 9.57143 9V9H8.42857V9C6.53502 9 5 7.46498 5 5.57143V5Z" stroke="#0496FF" stroke-width="1.4"/>
</svg>
