<svg width="18" height="19" viewBox="0 0 18 19" fill="none" xmlns="http://www.w3.org/2000/svg">
<path d="M15.6666 5.33416L7.48901 15.0667C7.14771 15.4729 6.68547 15.7424 6.18036 15.8242C5.57211 15.9225 4.80946 16.0322 4.16537 16.0836C3.84109 16.1094 3.5673 16.1188 3.36652 16.1088C3.34773 16.1079 3.33025 16.1068 3.31402 16.1056C3.31007 16.0898 3.306 16.0728 3.30184 16.0545C3.25742 15.8584 3.21944 15.5871 3.18903 15.2632C3.12863 14.6199 3.10519 13.8498 3.09727 13.2337C3.0907 12.722 3.27652 12.2203 3.61781 11.8141L11.7867 2.09181C12.1853 1.61743 12.8315 1.50899 13.3124 1.80365C13.7908 2.09672 14.2755 2.42015 14.6194 2.70908C14.9553 2.99135 15.3389 3.39379 15.6925 3.79634C16.0595 4.21407 16.0632 4.86214 15.6666 5.33416ZM3.15171 16.0826C3.15187 16.0825 3.15481 16.0833 3.16002 16.0852C3.15416 16.0837 3.15155 16.0827 3.15171 16.0826ZM3.3607 16.2538C3.36346 16.2586 3.3647 16.2614 3.36464 16.2615C3.36458 16.2617 3.3632 16.2593 3.3607 16.2538Z" stroke="#0496FF" stroke-width="1.4"/>
<path d="M10.6769 3.77734C10.6769 3.77734 11.6528 5.17869 12.5046 5.73947C13.3563 6.30025 14.4166 6.91669 14.4166 6.91669" stroke="#0496FF" stroke-width="1.4" stroke-linecap="round"/>
</svg>
