<svg width="22" height="21" viewBox="0 0 22 21" fill="none" xmlns="http://www.w3.org/2000/svg">
<rect x="1" y="2" width="20" height="18" rx="6" stroke="#222628" stroke-width="1.4"/>
<line x1="15.7" y1="0.7" x2="15.7" y2="3.3" stroke="#222628" stroke-width="1.4" stroke-linecap="round"/>
<line x1="6.7" y1="0.7" x2="6.7" y2="3.3" stroke="#222628" stroke-width="1.4" stroke-linecap="round"/>
<path d="M11.7008 7.99979C11.7008 8.38639 11.3874 8.69979 11.0008 8.69979C10.6142 8.69979 10.3008 8.38639 10.3008 7.99979C10.3008 7.61319 10.6142 7.29979 11.0008 7.29979C11.3874 7.29979 11.7008 7.61319 11.7008 7.99979Z" fill="#222628"/>
<path d="M16.7008 7.99979C16.7008 8.38639 16.3874 8.69979 16.0008 8.69979C15.6142 8.69979 15.3008 8.38639 15.3008 7.99979C15.3008 7.61319 15.6142 7.29979 16.0008 7.29979C16.3874 7.29979 16.7008 7.61319 16.7008 7.99979Z" fill="#222628"/>
<path d="M6.70078 7.99979C6.70078 8.38639 6.38738 8.69979 6.00078 8.69979C5.61418 8.69979 5.30078 8.38639 5.30078 7.99979C5.30078 7.61319 5.61418 7.29979 6.00078 7.29979C6.38738 7.29979 6.70078 7.61319 6.70078 7.99979Z" fill="#222628"/>
<path d="M11.7008 11.9998C11.7008 12.3864 11.3874 12.6998 11.0008 12.6998C10.6142 12.6998 10.3008 12.3864 10.3008 11.9998C10.3008 11.6132 10.6142 11.2998 11.0008 11.2998C11.3874 11.2998 11.7008 11.6132 11.7008 11.9998Z" fill="#222628"/>
<path d="M6.70078 11.9998C6.70078 12.3864 6.38738 12.6998 6.00078 12.6998C5.61418 12.6998 5.30078 12.3864 5.30078 11.9998C5.30078 11.6132 5.61418 11.2998 6.00078 11.2998C6.38738 11.2998 6.70078 11.6132 6.70078 11.9998Z" fill="#222628"/>
<path d="M16.7008 11.9998C16.7008 12.3864 16.3874 12.6998 16.0008 12.6998C15.6142 12.6998 15.3008 12.3864 15.3008 11.9998C15.3008 11.6132 15.6142 11.2998 16.0008 11.2998C16.3874 11.2998 16.7008 11.6132 16.7008 11.9998Z" fill="#222628"/>
<path d="M16.7008 15.9998C16.7008 16.3864 16.3874 16.6998 16.0008 16.6998C15.6142 16.6998 15.3008 16.3864 15.3008 15.9998C15.3008 15.6132 15.6142 15.2998 16.0008 15.2998C16.3874 15.2998 16.7008 15.6132 16.7008 15.9998Z" fill="#222628"/>
<path d="M11.7008 15.9998C11.7008 16.3864 11.3874 16.6998 11.0008 16.6998C10.6142 16.6998 10.3008 16.3864 10.3008 15.9998C10.3008 15.6132 10.6142 15.2998 11.0008 15.2998C11.3874 15.2998 11.7008 15.6132 11.7008 15.9998Z" fill="#222628"/>
<path d="M6.70078 15.9998C6.70078 16.3864 6.38738 16.6998 6.00078 16.6998C5.61418 16.6998 5.30078 16.3864 5.30078 15.9998C5.30078 15.6132 5.61418 15.2998 6.00078 15.2998C6.38738 15.2998 6.70078 15.6132 6.70078 15.9998Z" fill="#222628"/>
</svg>
