<svg width="25" height="24" viewBox="0 0 25 24" fill="none" xmlns="http://www.w3.org/2000/svg">
<g opacity="0.6">
<path d="M10.1255 7.33815C9.63663 8.07738 8.49973 9.13887 8.49973 10C8.49973 10.9972 9.56237 13.0054 10.9424 14.3684C12.3225 15.7315 13.4901 16.5 14.4997 16.5C15.1871 16.5 15.5326 14.8421 17.3686 14.8421C18.7457 14.8421 20.4997 16.3421 20.9997 18C21.2864 18.9506 20.1636 19.8088 18.9046 20.4062C17.9175 20.8747 16.8107 21.0432 15.7231 20.9385C13.7366 20.7474 10.9044 19.9623 7.49974 16.7368C3.59822 12.5 3.40124 9.72438 3.49973 7.01385C3.59822 4.30332 5.99973 3 6.81132 3C7.56424 3 9.92416 5.03844 10.2614 6.64692C10.3116 6.88649 10.2605 7.13397 10.1255 7.33815Z" stroke="black" stroke-width="1.4" stroke-linecap="round" stroke-linejoin="round"/>
</g>
</svg>
