<svg width="24" height="24" viewBox="0 0 24 24" fill="none" xmlns="http://www.w3.org/2000/svg">
<path d="M9.62595 7.33815C9.13712 8.07738 8.00021 9.13887 8.00021 10C8.00021 10.9972 9.06286 13.0054 10.4429 14.3684C11.823 15.7315 12.9905 16.5 14.0002 16.5C14.6876 16.5 15.0331 14.8421 16.8691 14.8421C18.2461 14.8421 20.0002 16.3421 20.5002 18C20.7869 18.9506 19.6641 19.8088 18.4051 20.4062C17.418 20.8747 16.3112 21.0432 15.2236 20.9385C13.2371 20.7474 10.4049 19.9623 7.00022 16.7368C3.0987 12.5 2.90173 9.72438 3.00022 7.01385C3.09871 4.30332 5.50022 3 6.3118 3C7.06473 3 9.42465 5.03844 9.76185 6.64692C9.81207 6.88649 9.76096 7.13397 9.62595 7.33815Z" stroke="black" stroke-width="1.4" stroke-linecap="round" stroke-linejoin="round"/>
</svg>
