<svg width="32" height="30" viewBox="0 0 32 30" fill="none" xmlns="http://www.w3.org/2000/svg">
<path d="M1 11.9801C1 9.93416 1 8.9112 1.29488 8.09104C1.79957 6.68737 2.90461 5.58233 4.30829 5.07764C5.12844 4.78276 6.1514 4.78276 8.19732 4.78276V4.78276C8.5389 4.78276 8.70969 4.78276 8.87298 4.75554C9.15108 4.70918 9.41624 4.60455 9.65106 4.44851C9.78893 4.35689 9.9137 4.24027 10.1632 4.00702L11.11 3.12204C11.7926 2.48404 12.1338 2.16504 12.5428 1.96696C12.6782 1.90141 12.8183 1.84612 12.962 1.80158C13.396 1.66699 13.8632 1.66699 14.7975 1.66699H16H17.2025C18.1368 1.66699 18.604 1.66699 19.038 1.80158C19.1817 1.84612 19.3218 1.90141 19.4572 1.96696C19.8662 2.16504 20.2074 2.48404 20.89 3.12204L21.8368 4.00702C22.0863 4.24027 22.2111 4.35689 22.3489 4.44851C22.5838 4.60455 22.8489 4.70918 23.127 4.75554C23.2903 4.78276 23.4611 4.78276 23.8027 4.78276V4.78276C25.8486 4.78276 26.8716 4.78276 27.6917 5.07764C29.0954 5.58233 30.2004 6.68737 30.7051 8.09104C31 8.9112 31 9.93416 31 11.9801V21.967C31 24.9668 31 26.4667 30.2361 27.5181C29.9893 27.8577 29.6907 28.1563 29.3511 28.4031C28.2997 29.167 26.7998 29.167 23.8 29.167H8.2C5.20021 29.167 3.70032 29.167 2.64886 28.4031C2.30928 28.1563 2.01065 27.8577 1.76393 27.5181C1 26.4667 1 24.9668 1 21.967V11.9801Z" stroke="black" stroke-width="1.4"/>
<ellipse cx="16" cy="18.334" rx="5" ry="5" stroke="black" stroke-width="1.4"/>
<path d="M22.6665 10H24.3332" stroke="black" stroke-width="1.4" stroke-linecap="round"/>
</svg>
