<svg width="20" height="20" viewBox="0 0 20 20" fill="none" xmlns="http://www.w3.org/2000/svg">
<path d="M2.5 8.48955C2.5 6.50207 4.11118 4.89089 6.09866 4.89089V4.89089C6.46364 4.89089 6.81499 4.75225 7.08162 4.50302L7.33333 4.26774C7.4664 4.14336 7.53293 4.08117 7.60075 4.02486C8.0928 3.61633 8.70252 3.37574 9.34096 3.33818C9.42896 3.33301 9.52003 3.33301 9.70217 3.33301H10H10.2978C10.48 3.33301 10.571 3.33301 10.659 3.33818C11.2975 3.37574 11.9072 3.61633 12.3992 4.02486C12.4671 4.08117 12.5336 4.14336 12.6667 4.26774L12.9184 4.50302C13.185 4.75225 13.5364 4.89089 13.9013 4.89089V4.89089C15.8888 4.89089 17.5 6.50207 17.5 8.48955V11.6643C17.5 12.9839 17.5 13.6438 17.3458 14.1829C16.966 15.5109 15.9279 16.549 14.5999 16.9288C14.0608 17.083 13.4009 17.083 12.0813 17.083H7.91872C6.59907 17.083 5.93924 17.083 5.4001 16.9288C4.07209 16.549 3.03401 15.5109 2.6542 14.1829C2.5 13.6438 2.5 12.9839 2.5 11.6643V8.48955Z" stroke="#0496FF" stroke-width="1.4"/>
<circle cx="10" cy="11.666" r="2.5" stroke="#0496FF" stroke-width="1.4"/>
<path d="M13.3335 7.5H14.1668" stroke="#0496FF" stroke-width="1.4" stroke-linecap="round"/>
</svg>
