<svg width="22" height="22" viewBox="0 0 22 22" fill="none" xmlns="http://www.w3.org/2000/svg">
<path d="M2.75 9.33895C2.75 7.15272 4.52229 5.38042 6.70853 5.38042V5.38042C7.11 5.38042 7.49649 5.22791 7.78978 4.95376L8.06667 4.69495C8.2982 4.47853 8.41396 4.37032 8.53617 4.27752C8.97475 3.94449 9.49653 3.73859 10.0443 3.68241C10.197 3.66675 10.3555 3.66675 10.6724 3.66675H11H11.3276C11.6445 3.66675 11.803 3.66675 11.9557 3.68241C12.5035 3.73859 13.0253 3.94449 13.4638 4.27752C13.586 4.37032 13.7018 4.47853 13.9333 4.69495L14.2102 4.95376C14.5035 5.22791 14.89 5.38042 15.2915 5.38042V5.38042C17.4777 5.38042 19.25 7.15271 19.25 9.33895V12.8312C19.25 14.6579 19.25 15.5713 18.9573 16.2938C18.5508 17.297 17.7552 18.0926 16.7521 18.499C16.0296 18.7917 15.1162 18.7917 13.2894 18.7917H8.71059C6.88381 18.7917 5.97043 18.7917 5.24791 18.499C4.24479 18.0926 3.44919 17.297 3.04275 16.2938C2.75 15.5713 2.75 14.6579 2.75 12.8312V9.33895Z" stroke="white" stroke-width="1.4"/>
<circle cx="11" cy="12.8335" r="2.75" stroke="white" stroke-width="1.4"/>
<path d="M14.666 8.25H15.5827" stroke="white" stroke-width="1.4" stroke-linecap="round"/>
</svg>
