<svg width="32" height="32" viewBox="0 0 32 32" fill="none" xmlns="http://www.w3.org/2000/svg">
<path d="M9.69119 19.2119L7.8507 12.3431M9.69119 19.2119L6.68609 20.0172M9.69119 19.2119L11.4978 19.4098M7.8507 12.3431L2.80642 13.6947C2.27295 13.8377 1.95637 14.386 2.09931 14.9195L3.42217 19.8564C3.56511 20.3899 4.11345 20.7065 4.64691 20.5635L6.68609 20.0172M7.8507 12.3431L16.8394 4.30135C18.0395 3.22763 19.4831 2.46241 21.0454 2.07187V2.07187C21.2064 2.03162 21.3705 2.12538 21.4176 2.2845L26.5629 19.6665C26.6203 19.8605 26.5103 20.0643 26.3167 20.1228V20.1228C24.7883 20.5843 23.1819 20.7299 21.5954 20.5507L11.4978 19.4098M6.68609 20.0172L9.93078 27.4685C10.1284 27.9223 10.6283 28.1633 11.1064 28.0352L13.4808 27.399C14.0592 27.244 14.3726 26.6189 14.1508 26.0626L11.4978 19.4098" stroke="#A5A9B8" stroke-width="1.4" stroke-linecap="round" stroke-linejoin="round"/>
<path d="M23.8291 8.87158C23.8291 8.87158 26.5097 8.31872 27.1708 10.7862C27.832 13.2538 25.2341 14.1153 25.2341 14.1153" stroke="#A5A9B8" stroke-width="1.4" stroke-linecap="round" stroke-linejoin="round"/>
</svg>
