<svg width="28" height="28" viewBox="0 0 28 28" fill="none" xmlns="http://www.w3.org/2000/svg">
<circle cx="14" cy="14" r="14" fill="#F31B1B"/>
<path d="M16.4994 13.167H14.8327V9.83366C14.8327 9.61265 14.7449 9.40068 14.5886 9.2444C14.4323 9.08812 14.2204 9.00033 13.9994 9.00033C13.7783 9.00033 13.5664 9.08812 13.4101 9.2444C13.2538 9.40068 13.166 9.61265 13.166 9.83366V14.0003C13.166 14.2213 13.2538 14.4333 13.4101 14.5896C13.5664 14.7459 13.7783 14.8337 13.9994 14.8337H16.4994C16.7204 14.8337 16.9323 14.7459 17.0886 14.5896C17.2449 14.4333 17.3327 14.2213 17.3327 14.0003C17.3327 13.7793 17.2449 13.5674 17.0886 13.4111C16.9323 13.2548 16.7204 13.167 16.4994 13.167ZM13.9994 5.66699C12.3512 5.66699 10.74 6.15573 9.3696 7.07141C7.99919 7.98709 6.93109 9.28858 6.30036 10.8113C5.66963 12.334 5.5046 14.0096 5.82614 15.6261C6.14769 17.2426 6.94136 18.7274 8.1068 19.8929C9.27223 21.0583 10.7571 21.852 12.3736 22.1735C13.9901 22.4951 15.6657 22.3301 17.1884 21.6993C18.7111 21.0686 20.0126 20.0005 20.9283 18.6301C21.8439 17.2597 22.3327 15.6485 22.3327 14.0003C22.3327 12.906 22.1171 11.8223 21.6983 10.8113C21.2796 9.80025 20.6657 8.88159 19.8919 8.10777C19.1181 7.33395 18.1994 6.72012 17.1884 6.30133C16.1773 5.88254 15.0937 5.66699 13.9994 5.66699ZM13.9994 20.667C12.6808 20.667 11.3919 20.276 10.2956 19.5435C9.19922 18.8109 8.34474 17.7697 7.84016 16.5515C7.33557 15.3334 7.20355 13.9929 7.46078 12.6997C7.71802 11.4065 8.35296 10.2186 9.28531 9.28628C10.2177 8.35393 11.4055 7.71899 12.6988 7.46176C13.992 7.20452 15.3324 7.33654 16.5506 7.84113C17.7687 8.34571 18.8099 9.2002 19.5425 10.2965C20.275 11.3929 20.666 12.6818 20.666 14.0003C20.666 15.7684 19.9636 17.4641 18.7134 18.7144C17.4632 19.9646 15.7675 20.667 13.9994 20.667Z" fill="white"/>
</svg>
