<svg width="28" height="28" viewBox="0 0 28 28" fill="none" xmlns="http://www.w3.org/2000/svg">
<circle cx="14" cy="14" r="14" fill="#06D6A0"/>
<path d="M15.6667 13.167H12.3333C11.8913 13.167 11.4674 12.9914 11.1548 12.6788C10.8423 12.3663 10.6667 11.9424 10.6667 11.5003C10.6667 11.0583 10.8423 10.6344 11.1548 10.3218C11.4674 10.0093 11.8913 9.83366 12.3333 9.83366H16.5C16.721 9.83366 16.933 9.92146 17.0893 10.0777C17.2455 10.234 17.3333 10.446 17.3333 10.667C17.3333 10.888 17.4211 11.1 17.5774 11.2562C17.7337 11.4125 17.9457 11.5003 18.1667 11.5003C18.3877 11.5003 18.5996 11.4125 18.7559 11.2562C18.9122 11.1 19 10.888 19 10.667C19 10.004 18.7366 9.36807 18.2678 8.89923C17.7989 8.43038 17.163 8.16699 16.5 8.16699H14.8333V6.50033C14.8333 6.27931 14.7455 6.06735 14.5893 5.91107C14.433 5.75479 14.221 5.66699 14 5.66699C13.779 5.66699 13.567 5.75479 13.4107 5.91107C13.2545 6.06735 13.1667 6.27931 13.1667 6.50033V8.16699H12.3333C11.4493 8.16699 10.6014 8.51818 9.97631 9.1433C9.35119 9.76842 9 10.6163 9 11.5003C9 12.3844 9.35119 13.2322 9.97631 13.8573C10.6014 14.4825 11.4493 14.8337 12.3333 14.8337H15.6667C16.1087 14.8337 16.5326 15.0093 16.8452 15.3218C17.1577 15.6344 17.3333 16.0583 17.3333 16.5003C17.3333 16.9424 17.1577 17.3663 16.8452 17.6788C16.5326 17.9914 16.1087 18.167 15.6667 18.167H11.5C11.279 18.167 11.067 18.0792 10.9107 17.9229C10.7545 17.7666 10.6667 17.5547 10.6667 17.3337C10.6667 17.1126 10.5789 16.9007 10.4226 16.7444C10.2663 16.5881 10.0543 16.5003 9.83333 16.5003C9.61232 16.5003 9.40036 16.5881 9.24408 16.7444C9.0878 16.9007 9 17.1126 9 17.3337C9 17.9967 9.26339 18.6326 9.73223 19.1014C10.2011 19.5703 10.837 19.8337 11.5 19.8337H13.1667V21.5003C13.1667 21.7213 13.2545 21.9333 13.4107 22.0896C13.567 22.2459 13.779 22.3337 14 22.3337C14.221 22.3337 14.433 22.2459 14.5893 22.0896C14.7455 21.9333 14.8333 21.7213 14.8333 21.5003V19.8337H15.6667C16.5507 19.8337 17.3986 19.4825 18.0237 18.8573C18.6488 18.2322 19 17.3844 19 16.5003C19 15.6163 18.6488 14.7684 18.0237 14.1433C17.3986 13.5182 16.5507 13.167 15.6667 13.167Z" fill="white"/>
</svg>
