<svg width="28" height="28" viewBox="0 0 28 28" fill="none" xmlns="http://www.w3.org/2000/svg">
<circle cx="14" cy="14" r="14" fill="#06D6A0"/>
<path d="M19.5917 10.0082C19.5142 9.93011 19.4221 9.86811 19.3205 9.82581C19.219 9.7835 19.11 9.76172 19 9.76172C18.89 9.76172 18.7811 9.7835 18.6796 9.82581C18.578 9.86811 18.4858 9.93011 18.4084 10.0082L12.2 16.2249L9.59171 13.6082C9.51127 13.5305 9.41632 13.4694 9.31227 13.4284C9.20823 13.3874 9.09713 13.3673 8.98531 13.3692C8.87349 13.3712 8.76315 13.3951 8.66058 13.4397C8.55802 13.4843 8.46524 13.5486 8.38754 13.6291C8.30984 13.7095 8.24875 13.8044 8.20774 13.9085C8.16674 14.0125 8.14663 14.1236 8.14856 14.2354C8.1505 14.3473 8.17444 14.4576 8.21902 14.5602C8.2636 14.6627 8.32794 14.7555 8.40837 14.8332L11.6084 18.0332C11.6858 18.1113 11.778 18.1733 11.8796 18.2156C11.9811 18.2579 12.09 18.2797 12.2 18.2797C12.3101 18.2797 12.419 18.2579 12.5205 18.2156C12.6221 18.1733 12.7142 18.1113 12.7917 18.0332L19.5917 11.2332C19.6763 11.1552 19.7438 11.0605 19.79 10.9551C19.8361 10.8496 19.86 10.7358 19.86 10.6207C19.86 10.5056 19.8361 10.3918 19.79 10.2864C19.7438 10.181 19.6763 10.0863 19.5917 10.0082Z" fill="white"/>
</svg>
