<svg width="24" height="24" viewBox="0 0 24 24" fill="none" xmlns="http://www.w3.org/2000/svg">
<circle cx="12" cy="12" r="11.5" stroke="#0496FF"/>
<path d="M6.93589 15.5478C7.06972 14.3274 8.17221 13.4495 9.39664 13.5393C10.1818 13.5969 11.0663 13.6441 11.8573 13.6441C12.6828 13.6441 13.5982 13.5927 14.3941 13.5317C15.5597 13.4423 16.6301 14.2273 16.8444 15.3766V15.3766C17.0987 16.7401 16.0524 17.9997 14.6653 17.9997L11.8573 17.9997H9.13359C7.81714 17.9997 6.79237 16.8564 6.93589 15.5478V15.5478Z" stroke="#0496FF" stroke-width="1.4"/>
<path d="M9.33398 8.66667C9.33398 7.19391 10.5279 6 12.0007 6V6C13.4734 6 14.6673 7.19391 14.6673 8.66667V9.04762C14.6673 10.31 13.644 11.3333 12.3816 11.3333V11.3333H11.6197V11.3333C10.3573 11.3333 9.33398 10.31 9.33398 9.04762V8.66667Z" stroke="#0496FF" stroke-width="1.4"/>
</svg>
