<svg width="20" height="20" viewBox="0 0 20 20" fill="none" xmlns="http://www.w3.org/2000/svg">
<g opacity="0.6">
<path d="M10.0003 4.16683V4.17516M10.0003 10.0002V10.0085M10.0003 15.8335V15.8418M10.0003 5.00016C9.77931 5.00016 9.56735 4.91237 9.41107 4.75608C9.25479 4.5998 9.16699 4.38784 9.16699 4.16683C9.16699 3.94582 9.25479 3.73385 9.41107 3.57757C9.56735 3.42129 9.77931 3.3335 10.0003 3.3335C10.2213 3.3335 10.4333 3.42129 10.5896 3.57757C10.7459 3.73385 10.8337 3.94582 10.8337 4.16683C10.8337 4.38784 10.7459 4.5998 10.5896 4.75608C10.4333 4.91237 10.2213 5.00016 10.0003 5.00016ZM10.0003 10.8335C9.77931 10.8335 9.56735 10.7457 9.41107 10.5894C9.25479 10.4331 9.16699 10.2212 9.16699 10.0002C9.16699 9.77915 9.25479 9.56719 9.41107 9.41091C9.56735 9.25463 9.77931 9.16683 10.0003 9.16683C10.2213 9.16683 10.4333 9.25463 10.5896 9.41091C10.7459 9.56719 10.8337 9.77915 10.8337 10.0002C10.8337 10.2212 10.7459 10.4331 10.5896 10.5894C10.4333 10.7457 10.2213 10.8335 10.0003 10.8335ZM10.0003 16.6668C9.77931 16.6668 9.56735 16.579 9.41107 16.4228C9.25479 16.2665 9.16699 16.0545 9.16699 15.8335C9.16699 15.6125 9.25479 15.4005 9.41107 15.2442C9.56735 15.088 9.77931 15.0002 10.0003 15.0002C10.2213 15.0002 10.4333 15.088 10.5896 15.2442C10.7459 15.4005 10.8337 15.6125 10.8337 15.8335C10.8337 16.0545 10.7459 16.2665 10.5896 16.4228C10.4333 16.579 10.2213 16.6668 10.0003 16.6668Z" stroke="#18181B" stroke-width="2" stroke-linecap="round" stroke-linejoin="round"/>
</g>
</svg>
