<svg width="20" height="20" viewBox="0 0 20 20" fill="none" xmlns="http://www.w3.org/2000/svg">
<path d="M12.7865 3.09157C13.1851 2.61719 13.8313 2.50875 14.3122 2.8034C14.7906 3.09647 15.2753 3.4199 15.6192 3.70883C15.9551 3.99111 16.3387 4.39355 16.6923 4.7961C17.0593 5.21383 17.063 5.8619 16.6664 6.33392L8.48881 16.0665C8.14751 16.4727 7.68527 16.7422 7.18016 16.8239C6.57191 16.9223 5.80926 17.0319 5.16517 17.0833C4.84089 17.1092 4.5671 17.1185 4.36632 17.1086C4.34753 17.1076 4.33005 17.1065 4.31382 17.1054C4.30987 17.0896 4.3058 17.0726 4.30164 17.0542C4.25722 16.8582 4.21924 16.5868 4.18883 16.263C4.12843 15.6197 4.10499 14.8495 4.09707 14.2334C4.0905 13.7218 4.27632 13.22 4.61761 12.8138L12.7865 3.09157ZM4.15151 17.0824C4.15168 17.0823 4.15461 17.083 4.15983 17.0849C4.15396 17.0834 4.15135 17.0825 4.15151 17.0824ZM4.3605 17.2535C4.36325 17.2583 4.3645 17.2611 4.36444 17.2613C4.36439 17.2615 4.36301 17.2591 4.3605 17.2535Z" stroke="black" stroke-width="1.4"/>
<path d="M11.6768 4.77734C11.6768 4.77734 12.6527 6.17869 13.5044 6.73947C14.3562 7.30025 15.4164 7.91669 15.4164 7.91669" stroke="black" stroke-width="1.4" stroke-linecap="round"/>
</svg>
