<svg width="25" height="24" viewBox="0 0 25 24" fill="none" xmlns="http://www.w3.org/2000/svg">
<g opacity="0.6">
<path d="M19.5368 7.57788L9.08077 20.0221C8.74564 20.421 8.29294 20.6887 7.79545 20.7776C7.06742 20.9076 6.07996 21.0683 5.22955 21.1532C4.802 21.1959 4.42946 21.2173 4.14989 21.21C4.06811 21.2079 4.00107 21.2034 3.94759 21.1978C3.9328 21.1461 3.91686 21.0808 3.90067 21.0006C3.84535 20.7265 3.80221 20.3558 3.77058 19.9273C3.70767 19.075 3.69575 18.0746 3.69834 17.3351C3.7001 16.8297 3.88584 16.3376 4.22096 15.9388L14.6681 3.50504C15.0635 3.03453 15.7081 2.9214 16.1984 3.21131C16.8521 3.59783 17.5702 4.05875 18.0609 4.47105C18.5429 4.87602 19.0955 5.47796 19.5676 6.03402C19.9315 6.46259 19.9299 7.10994 19.5368 7.57788ZM3.81421 21.1744C3.81433 21.1743 3.81662 21.175 3.82076 21.1766C3.81616 21.1753 3.8141 21.1745 3.81421 21.1744ZM3.99031 21.3191C3.99261 21.3229 3.99366 21.325 3.9936 21.3251C3.99354 21.3253 3.9924 21.3233 3.99031 21.3191Z" stroke="black" stroke-width="1.4"/>
<path d="M12.918 6C12.918 6 13.9563 7.59424 14.8931 8.21099C15.8299 8.82774 16.9997 9.5 16.9997 9.5" stroke="black" stroke-width="1.4" stroke-linecap="round"/>
</g>
</svg>
