<svg width="24" height="24" viewBox="0 0 24 24" fill="none" xmlns="http://www.w3.org/2000/svg">
<path d="M15.4435 3.3737C15.8403 2.90136 16.4885 2.78902 16.9802 3.08246C17.6302 3.47038 18.3437 3.93168 18.8333 4.34312C19.3142 4.74714 19.8663 5.34448 20.3392 5.8966C20.7068 6.32598 20.7067 6.97689 20.3119 7.44671L10.1571 19.5326C9.81602 19.9385 9.35348 20.2084 8.84643 20.2926C8.12447 20.4124 7.15637 20.5574 6.32426 20.6297C5.90592 20.666 5.54219 20.6821 5.26931 20.6714C5.18723 20.6682 5.12037 20.6628 5.06748 20.6564C5.05203 20.6054 5.03518 20.5404 5.01787 20.4601C4.96033 20.1932 4.91347 19.8321 4.87716 19.4138C4.80494 18.5817 4.78094 17.6031 4.77452 16.8713C4.77002 16.3573 4.95621 15.8552 5.29725 15.4493L15.4435 3.3737ZM4.94175 20.6325C4.94187 20.6324 4.94398 20.633 4.9478 20.6346C4.94354 20.6333 4.94163 20.6325 4.94175 20.6325ZM5.10958 20.7705C5.11175 20.774 5.11274 20.776 5.1127 20.7761C5.11265 20.7762 5.11157 20.7744 5.10958 20.7705Z" stroke="black" stroke-width="1.4"/>
<path d="M14.0122 5.73242C14.0122 5.73242 15.1833 7.41404 16.2054 8.08697C17.2275 8.75991 18.4998 9.49964 18.4998 9.49964" stroke="black" stroke-width="1.4" stroke-linecap="round"/>
</svg>
