<svg width="24" height="24" viewBox="0 0 24 24" fill="none" xmlns="http://www.w3.org/2000/svg">
<path d="M15.4435 3.37394C15.8403 2.9016 16.4885 2.78926 16.9802 3.0827C17.6302 3.47062 18.3437 3.93192 18.8333 4.34336C19.3142 4.74738 19.8663 5.34472 20.3392 5.89684C20.7068 6.32622 20.7067 6.97714 20.3119 7.44695L10.1571 19.5329C9.81602 19.9387 9.35348 20.2087 8.84643 20.2928C8.12447 20.4126 7.15637 20.5577 6.32426 20.6299C5.90592 20.6663 5.54219 20.6823 5.26931 20.6717C5.18723 20.6684 5.12037 20.663 5.06748 20.6566C5.05203 20.6056 5.03518 20.5407 5.01787 20.4604C4.96033 20.1934 4.91347 19.8324 4.87716 19.414C4.80494 18.5819 4.78094 17.6033 4.77452 16.8715C4.77002 16.3575 4.95621 15.8554 5.29725 15.4495L15.4435 3.37394ZM4.94175 20.6327C4.94187 20.6326 4.94398 20.6333 4.9478 20.6348C4.94354 20.6335 4.94163 20.6328 4.94175 20.6327ZM5.10958 20.7707C5.11175 20.7742 5.11274 20.7762 5.1127 20.7763C5.11265 20.7764 5.11157 20.7747 5.10958 20.7707Z" stroke="#0496FF" stroke-width="1.4"/>
<path d="M14.0117 5.73267C14.0117 5.73267 15.1828 7.41428 16.2049 8.08721C17.227 8.76015 18.4993 9.49988 18.4993 9.49988" stroke="#0496FF" stroke-width="1.4" stroke-linecap="round"/>
</svg>
