<svg width="24" height="24" viewBox="0 0 24 24" fill="none" xmlns="http://www.w3.org/2000/svg">
<rect x="2.7" y="2.7" width="18.6" height="18.6" rx="5.3" stroke="#EF476F" stroke-width="1.4"/>
<path d="M13.6064 6.97008C14.0141 6.48481 14.6763 6.38409 15.153 6.69634C15.4896 6.91684 15.8118 7.14474 16.0533 7.34765C16.2872 7.54413 16.5526 7.80739 16.8129 8.08537C17.1968 8.4954 17.2113 9.15829 16.8052 9.64168L11.0418 16.501C10.6695 16.9441 10.1557 17.223 9.60553 17.2734C9.11965 17.3179 8.57325 17.3561 8.12456 17.358C7.91514 17.3589 7.74371 17.3517 7.61722 17.3374C7.58136 17.2153 7.54473 17.0477 7.50952 16.8412C7.43407 16.3989 7.37753 15.8541 7.33765 15.3678C7.29249 14.8172 7.47863 14.2631 7.85093 13.82L13.6064 6.97008ZM7.46968 17.3114C7.46976 17.3114 7.47167 17.3119 7.47515 17.3133L7.47506 17.3132C7.47132 17.3121 7.46961 17.3115 7.46968 17.3114ZM7.66551 17.4732C7.6693 17.4796 7.66909 17.4803 7.66556 17.4733L7.66551 17.4732Z" stroke="#EF476F" stroke-width="1.4"/>
<path d="M13.2729 8C13.2729 8 13.8667 8.98509 14.424 9.35204C14.9814 9.71899 15.68 10.115 15.68 10.115" stroke="#EF476F" stroke-width="1.4" stroke-linecap="round"/>
</svg>
