<svg width="20" height="20" viewBox="0 0 20 20" fill="none" xmlns="http://www.w3.org/2000/svg">
<path d="M1.66797 2.5H17.6163C17.6893 2.49988 17.7611 2.51896 17.8245 2.55532C17.8878 2.59169 17.9405 2.64406 17.9772 2.7072C18.0139 2.77034 18.0334 2.84201 18.0337 2.91505C18.0339 2.98809 18.015 3.05991 17.9788 3.12333L15.0013 8.33333L17.9788 13.5433C18.015 13.6068 18.0339 13.6786 18.0337 13.7516C18.0334 13.8247 18.0139 13.8963 17.9772 13.9595C17.9405 14.0226 17.8878 14.075 17.8245 14.1113C17.7611 14.1477 17.6893 14.1668 17.6163 14.1667H3.33464V18.3333H1.66797V2.5Z" fill="#FFBD26"/>
</svg>
