<svg width="32" height="32" viewBox="0 0 32 32" fill="none" xmlns="http://www.w3.org/2000/svg">
<path fill-rule="evenodd" clip-rule="evenodd" d="M12.7887 20.2756C17.7073 20.2756 21.9113 21.021 21.9113 23.9983C21.9113 26.9756 17.7353 27.7423 12.7887 27.7423C7.86868 27.7423 3.66602 27.0036 3.66602 24.025C3.66602 21.0463 7.84068 20.2756 12.7887 20.2756Z" stroke="#fff" stroke-width="1.5" stroke-linecap="round" stroke-linejoin="round"/>
<path fill-rule="evenodd" clip-rule="evenodd" d="M12.7887 16.0263C9.55934 16.0263 6.94067 13.409 6.94067 10.1797C6.94067 6.95034 9.55934 4.33301 12.7887 4.33301C16.0167 4.33301 18.6353 6.95034 18.6353 10.1797C18.6473 13.397 16.0473 16.0143 12.83 16.0263H12.7887Z" stroke="#fff" stroke-width="1.5" stroke-linecap="round" stroke-linejoin="round"/>
<path d="M21.9775 14.5088C24.1121 14.2088 25.7561 12.3768 25.7601 10.1594C25.7601 7.97412 24.1668 6.16078 22.0775 5.81812" stroke="#fff" stroke-width="1.5" stroke-linecap="round" stroke-linejoin="round"/>
<path d="M24.7939 19.6428C26.8619 19.9508 28.3059 20.6762 28.3059 22.1695C28.3059 23.1975 27.6259 23.8642 26.5272 24.2815" stroke="#fff" stroke-width="1.5" stroke-linecap="round" stroke-linejoin="round"/>
</svg>
