<svg width="18" height="18" viewBox="0 0 18 18" fill="none" xmlns="http://www.w3.org/2000/svg">
<path d="M7.0525 13.1667H10.9467M9 1.5V2.33333M14.3033 3.69667L13.7142 4.28583M16.5 9H15.6667M2.33333 9H1.5M4.28583 4.28583L3.69667 3.69667M6.05333 11.9467C5.47072 11.3639 5.074 10.6215 4.91331 9.81325C4.75263 9.00502 4.83521 8.1673 5.15061 7.40601C5.466 6.64471 6.00006 5.99403 6.68524 5.53624C7.37042 5.07845 8.17596 4.83411 9 4.83411C9.82404 4.83411 10.6296 5.07845 11.3148 5.53624C11.9999 5.99403 12.534 6.64471 12.8494 7.40601C13.1648 8.1673 13.2474 9.00502 13.0867 9.81325C12.926 10.6215 12.5293 11.3639 11.9467 11.9467L11.49 12.4025C11.2289 12.6636 11.0218 12.9736 10.8806 13.3148C10.7393 13.6559 10.6666 14.0216 10.6667 14.3908V14.8333C10.6667 15.2754 10.4911 15.6993 10.1785 16.0118C9.86595 16.3244 9.44203 16.5 9 16.5C8.55797 16.5 8.13405 16.3244 7.82149 16.0118C7.50893 15.6993 7.33333 15.2754 7.33333 14.8333V14.3908C7.33333 13.645 7.03667 12.9292 6.51 12.4025L6.05333 11.9467Z" stroke="black" stroke-width="2" stroke-linecap="round" stroke-linejoin="round"/>
</svg>
