<svg width="24" height="24" viewBox="0 0 24 24" fill="none" xmlns="http://www.w3.org/2000/svg">
<path d="M14.8283 7.75689L9.17229 13.4139C9.07678 13.5061 9.0006 13.6165 8.94819 13.7385C8.89578 13.8605 8.86819 13.9917 8.86704 14.1245C8.86588 14.2573 8.89118 14.3889 8.94147 14.5118C8.99175 14.6347 9.066 14.7464 9.15989 14.8403C9.25378 14.9342 9.36544 15.0084 9.48833 15.0587C9.61123 15.109 9.74291 15.1343 9.87569 15.1331C10.0085 15.132 10.1397 15.1044 10.2617 15.052C10.3837 14.9996 10.494 14.9234 10.5863 14.8279L16.2433 9.17189C16.8059 8.60923 17.122 7.8461 17.122 7.05039C17.122 6.25467 16.8059 5.49154 16.2433 4.92889C15.6806 4.36623 14.9175 4.05013 14.1218 4.05013C13.3261 4.05013 12.5629 4.36623 12.0003 4.92889L6.34329 10.5859C5.86936 11.048 5.49192 11.5996 5.23284 12.2088C4.97377 12.8179 4.83823 13.4724 4.83408 14.1344C4.82994 14.7963 4.95727 15.4525 5.20868 16.0648C5.4601 16.6771 5.83061 17.2334 6.2987 17.7015C6.7668 18.1695 7.32317 18.5399 7.93554 18.7913C8.54791 19.0426 9.20409 19.1698 9.86602 19.1656C10.5279 19.1614 11.1824 19.0257 11.7915 18.7666C12.4006 18.5074 12.9522 18.1299 13.4143 17.6559L19.0713 11.9999L20.4853 13.4139L14.8283 19.0709C14.1782 19.7209 13.4065 20.2366 12.5572 20.5884C11.7079 20.9402 10.7976 21.1212 9.87829 21.1212C8.95899 21.1212 8.04869 20.9402 7.19937 20.5884C6.35004 20.2366 5.57833 19.7209 4.92829 19.0709C4.27824 18.4208 3.7626 17.6491 3.4108 16.7998C3.059 15.9505 2.87793 15.0402 2.87793 14.1209C2.87793 13.2016 3.059 12.2913 3.4108 11.442C3.7626 10.5926 4.27824 9.82093 4.92829 9.17089L10.5863 3.51489C11.5293 2.6041 12.7923 2.10013 14.1033 2.11152C15.4143 2.12291 16.6683 2.64875 17.5954 3.57579C18.5224 4.50284 19.0483 5.7569 19.0597 7.06788C19.071 8.37887 18.5671 9.64188 17.6563 10.5849L12.0003 16.2439C11.7216 16.5225 11.3908 16.7435 11.0267 16.8942C10.6627 17.045 10.2725 17.1225 9.87843 17.1225C9.48439 17.1224 9.09421 17.0448 8.73018 16.894C8.36615 16.7431 8.03539 16.5221 7.75679 16.2434C7.47819 15.9647 7.2572 15.6339 7.10645 15.2698C6.9557 14.9058 6.87813 14.5156 6.87818 14.1215C6.87823 13.7275 6.95588 13.3373 7.10672 12.9733C7.25756 12.6092 7.47862 12.2785 7.75729 11.9999L13.4143 6.34289L14.8283 7.75689Z" fill="#0496FF"/>
</svg>
