<svg width="20" height="20" viewBox="0 0 20 20" fill="none" xmlns="http://www.w3.org/2000/svg">
<path d="M2.7673 5.45453C3.1096 5.45453 3.42453 5.27666 3.6269 5.00058C5.04586 3.06476 7.26945 1.81818 9.76913 1.81818C12.2688 1.81818 14.4924 3.06476 15.9114 5.00058C16.1137 5.27666 16.4287 5.45453 16.771 5.45453H17.4199C17.7889 5.45453 18.0285 5.06908 17.8419 4.7507C16.1713 1.89971 13.1806 0 9.76913 0C6.35765 0 3.36692 1.89971 1.69633 4.7507C1.50977 5.06908 1.74933 5.45453 2.11834 5.45453H2.7673Z" fill="#FFBD26"/>
<path d="M3.6269 14.9994C3.42453 14.7233 3.1096 14.5454 2.7673 14.5454H2.11834C1.74933 14.5454 1.50977 14.9309 1.69633 15.2493C3.36692 18.1003 6.35765 20 9.76913 20C13.1806 20 16.1713 18.1002 17.8419 15.2493C18.0285 14.9309 17.7889 14.5454 17.4199 14.5454H16.771C16.4287 14.5454 16.1137 14.7233 15.9114 14.9994C14.4924 16.9352 12.2688 18.1818 9.76913 18.1818C7.26945 18.1818 5.04586 16.9352 3.6269 14.9994Z" fill="#FFBD26"/>
<path d="M4.63694 6.5625C4.82656 6.5625 4.97882 6.62915 5.09374 6.76246C5.2144 6.8897 5.27474 7.05633 5.27474 7.26235V12.3612C5.27474 12.5733 5.2144 12.746 5.09374 12.8793C4.97882 13.0065 4.82656 13.0702 4.63694 13.0702C4.43009 13.0702 4.26346 12.9914 4.13705 12.8338L1.24973 8.9347V12.3612C1.24973 12.5733 1.19227 12.746 1.07736 12.8793C0.968184 13.0065 0.818791 13.0702 0.629176 13.0702C0.439561 13.0702 0.287295 13.0065 0.172377 12.8793C0.057459 12.746 0 12.5733 0 12.3612V7.26235C0 7.05633 0.057459 6.8897 0.172377 6.76246C0.293041 6.62915 0.44818 6.5625 0.637795 6.5625C0.850393 6.5625 1.01415 6.64127 1.12907 6.79881L4.01638 10.6707V7.26235C4.01638 7.05633 4.07384 6.8897 4.18876 6.76246C4.30368 6.62915 4.45307 6.5625 4.63694 6.5625Z" fill="#FFBD26"/>
<path d="M7.11015 13.0156C6.90904 13.0156 6.7539 12.9581 6.64473 12.8429C6.53556 12.7278 6.48097 12.5642 6.48097 12.3521V7.27143C6.48097 7.05936 6.53556 6.89576 6.64473 6.78063C6.7539 6.66551 6.90904 6.60794 7.11015 6.60794H10.1612C10.5864 6.60794 10.799 6.78972 10.799 7.15328C10.799 7.52289 10.5864 7.7077 10.1612 7.7077H7.79103V9.20737H9.98884C10.414 9.20737 10.6266 9.39218 10.6266 9.76179C10.6266 10.1253 10.414 10.3071 9.98884 10.3071H7.79103V11.9159H10.1612C10.5864 11.9159 10.799 12.1007 10.799 12.4703C10.799 12.8338 10.5864 13.0156 10.1612 13.0156H7.11015Z" fill="#FFBD26"/>
<path d="M18.8532 6.99125C18.9027 6.84583 18.977 6.73677 19.0761 6.66405C19.1807 6.58528 19.2963 6.5459 19.4229 6.5459C19.5826 6.5459 19.7175 6.60043 19.8276 6.7095C19.9432 6.81857 20.001 6.96702 20.001 7.15485C20.001 7.24574 19.9845 7.34572 19.9514 7.45479L18.2339 12.6264C18.1843 12.7718 18.0962 12.8869 17.9696 12.9718C17.8485 13.0505 17.7136 13.0899 17.565 13.0899C17.4164 13.0899 17.2815 13.0505 17.1604 12.9718C17.0393 12.8869 16.9539 12.7718 16.9044 12.6264L15.674 8.79995L14.4106 12.6264C14.3611 12.7718 14.2757 12.8869 14.1546 12.9718C14.0335 13.0505 13.8986 13.0899 13.75 13.0899C13.6069 13.0899 13.472 13.0505 13.3454 12.9718C13.2243 12.8869 13.1389 12.7718 13.0894 12.6264L11.3718 7.45479C11.3388 7.35178 11.3223 7.25483 11.3223 7.16394C11.3223 6.97611 11.3828 6.82765 11.5039 6.71859C11.625 6.60346 11.7682 6.5459 11.9333 6.5459C12.0654 6.5459 12.1838 6.58528 12.2884 6.66405C12.3985 6.73677 12.4783 6.84583 12.5279 6.99125L13.7995 11.0176L15.1207 7.00943C15.1703 6.86401 15.2474 6.75191 15.352 6.67314C15.4621 6.59437 15.5777 6.55499 15.6988 6.55499C15.8254 6.55499 15.941 6.59437 16.0456 6.67314C16.1502 6.75191 16.2273 6.86704 16.2768 7.01852L17.5402 11.0903L18.8532 6.99125Z" fill="#FFBD26"/>
</svg>
