<svg width="24" height="24" viewBox="0 0 24 24" fill="none" xmlns="http://www.w3.org/2000/svg">
<circle cx="12" cy="12" r="11.5" stroke="#0496FF"/>
<path d="M6.93589 15.5483C7.06972 14.3279 8.17221 13.4499 9.39664 13.5398C10.1818 13.5974 11.0663 13.6446 11.8573 13.6446C12.6828 13.6446 13.5982 13.5932 14.3941 13.5322C15.5597 13.4428 16.6301 14.2278 16.8444 15.3771V15.3771C17.0987 16.7406 16.0524 18.0002 14.6653 18.0002L11.8573 18.0002H9.13359C7.81714 18.0002 6.79237 16.8569 6.93589 15.5483V15.5483Z" stroke="#0496FF" stroke-width="1.4"/>
<path d="M9.33398 8.66667C9.33398 7.19391 10.5279 6 12.0007 6V6C13.4734 6 14.6673 7.19391 14.6673 8.66667V9.04762C14.6673 10.31 13.644 11.3333 12.3816 11.3333V11.3333H11.6197V11.3333C10.3573 11.3333 9.33398 10.31 9.33398 9.04762V8.66667Z" stroke="#0496FF" stroke-width="1.4"/>
</svg>
