<svg width="29" height="30" viewBox="0 0 29 30" fill="none" xmlns="http://www.w3.org/2000/svg">
<g clip-path="url(#clip0_1429_54684)">
<path d="M11.6941 7.11657C11.3019 7.11261 10.9129 7.20029 10.558 7.37261C10.2031 7.54493 9.89211 7.79714 9.64989 8.10913C9.40767 8.42112 9.24088 8.78428 9.1628 9.16967C9.08473 9.55505 9.09753 9.95202 9.20018 10.3289L10.613 15.5099L8.85254 19.3601C8.79434 19.4872 8.76842 19.6263 8.77711 19.7649C8.7858 19.9035 8.82883 20.0372 8.90234 20.1541C8.97584 20.2711 9.07752 20.3675 9.19824 20.4347C9.31896 20.5019 9.45494 20.5379 9.59397 20.5394L13.5047 20.5789L13.3782 25.6731L14.1881 26.8697L15.057 25.69L15.1834 20.5958L19.0917 20.6352C19.2307 20.6367 19.3684 20.6036 19.4924 20.539C19.6164 20.4744 19.7229 20.3802 19.8023 20.265C19.8816 20.1497 19.9314 20.017 19.9472 19.8788C19.9629 19.7405 19.9441 19.601 19.8925 19.4727L18.3277 15.5807L19.9932 10.4367C20.1146 10.062 20.1471 9.66552 20.0881 9.27875C20.0292 8.89198 19.8805 8.52564 19.6539 8.20892C19.4273 7.89219 19.129 7.63384 18.7829 7.45444C18.4367 7.27504 18.0522 7.17956 17.66 7.17559L11.6941 7.11657ZM10.8208 9.86446C10.7868 9.73887 10.7827 9.60665 10.8089 9.47831C10.835 9.34998 10.8907 9.22907 10.9714 9.12521C11.0522 9.02136 11.1558 8.93741 11.274 8.88007C11.3923 8.82272 11.5219 8.79354 11.6525 8.79487L17.6195 8.85509C17.7501 8.85654 17.8782 8.88845 17.9935 8.9483C18.1088 9.00816 18.2081 9.09429 18.2836 9.19985C18.359 9.3054 18.4085 9.42747 18.4281 9.55633C18.4477 9.68519 18.4368 9.81729 18.3964 9.94211L16.6359 15.3748C16.5754 15.5622 16.5822 15.7639 16.655 15.9449L17.8595 18.9429L10.9119 18.8728L12.2656 15.9089C12.3474 15.7295 12.3642 15.528 12.313 15.3395L10.8208 9.86446Z" fill="#0496FF"/>
</g>
<defs>
<clipPath id="clip0_1429_54684">
<rect width="20.2966" height="20" fill="white" transform="translate(0.234375 14.856) rotate(-44)"/>
</clipPath>
</defs>
</svg>
