<svg width="20" height="21" viewBox="0 0 20 21" fill="none" xmlns="http://www.w3.org/2000/svg">
<g opacity="0.5">
<path d="M13.4203 2.53495C13.145 2.25966 12.8092 2.05247 12.4397 1.92989C12.0702 1.8073 11.6771 1.77272 11.2919 1.82889C10.9066 1.88506 10.5398 2.03043 10.2207 2.25342C9.90154 2.47641 9.63889 2.77085 9.45366 3.11329L6.90866 7.82162L3.02533 9.36829C2.89708 9.41928 2.7835 9.50132 2.6948 9.60705C2.60609 9.71279 2.54503 9.83889 2.51711 9.97405C2.48919 10.1092 2.49527 10.2492 2.53481 10.3814C2.57435 10.5136 2.64612 10.634 2.74366 10.7316L5.48866 13.4766L1.91199 17.0533L1.66699 18.4766L3.09033 18.2316L6.66699 14.655L9.41033 17.3983C9.50785 17.4959 9.62808 17.5677 9.76021 17.6074C9.89235 17.647 10.0323 17.6533 10.1674 17.6255C10.3026 17.5978 10.4287 17.5369 10.5345 17.4484C10.6403 17.3598 10.7225 17.2464 10.7737 17.1183L12.3287 13.2316L17.0303 10.6883C17.3728 10.5031 17.6672 10.2404 17.8902 9.92126C18.1132 9.60212 18.2586 9.23531 18.3147 8.85006C18.3709 8.4648 18.3363 8.07176 18.2137 7.70223C18.0911 7.33271 17.884 6.99692 17.6087 6.72162L13.4203 2.53495ZM10.9203 3.90495C10.9822 3.79099 11.0698 3.69303 11.1762 3.61888C11.2826 3.54473 11.4048 3.49642 11.5331 3.47781C11.6614 3.4592 11.7924 3.4708 11.9154 3.51168C12.0385 3.55255 12.1503 3.62159 12.242 3.71329L16.4303 7.90162C16.522 7.99343 16.5909 8.10535 16.6316 8.22849C16.6724 8.35164 16.6838 8.48259 16.6651 8.61093C16.6463 8.73928 16.5978 8.86146 16.5235 8.96777C16.4492 9.07408 16.3511 9.16157 16.237 9.22329L11.2703 11.9083C11.0992 12.0011 10.9659 12.1508 10.8937 12.3316L9.69532 15.325L4.81866 10.4483L7.80699 9.25662C7.98777 9.18437 8.13754 9.0511 8.23033 8.87995L10.9203 3.90495Z" fill="black"/>
</g>
</svg>
