<svg width="14" height="18" viewBox="0 0 14 18" fill="none" xmlns="http://www.w3.org/2000/svg">
<path d="M4.50008 3.16667H2.83341C2.39139 3.16667 1.96746 3.34226 1.6549 3.65482C1.34234 3.96738 1.16675 4.39131 1.16675 4.83333V14.8333C1.16675 15.2754 1.34234 15.6993 1.6549 16.0118C1.96746 16.3244 2.39139 16.5 2.83341 16.5H11.1667C11.6088 16.5 12.0327 16.3244 12.3453 16.0118C12.6578 15.6993 12.8334 15.2754 12.8334 14.8333V4.83333C12.8334 4.39131 12.6578 3.96738 12.3453 3.65482C12.0327 3.34226 11.6088 3.16667 11.1667 3.16667H9.50008M4.50008 3.16667C4.50008 3.60869 4.67568 4.03262 4.98824 4.34518C5.3008 4.65774 5.72472 4.83333 6.16675 4.83333H7.83342C8.27544 4.83333 8.69937 4.65774 9.01193 4.34518C9.32449 4.03262 9.50008 3.60869 9.50008 3.16667M4.50008 3.16667C4.50008 2.72464 4.67568 2.30072 4.98824 1.98816C5.3008 1.67559 5.72472 1.5 6.16675 1.5H7.83342C8.27544 1.5 8.69937 1.67559 9.01193 1.98816C9.32449 2.30072 9.50008 2.72464 9.50008 3.16667M7.00008 9H9.50008M7.00008 12.3333H9.50008M4.50008 9H4.50842M4.50008 12.3333H4.50842" stroke="black" stroke-width="2" stroke-linecap="round" stroke-linejoin="round"/>
</svg>
