<svg width="25" height="24" viewBox="0 0 25 24" fill="none" xmlns="http://www.w3.org/2000/svg">
<g opacity="0.6">
<path d="M4.90334 17.3222C4.94 16.9879 4.95832 16.8208 4.98127 16.7015C5.25983 15.2543 6.43043 14.2799 7.90422 14.2686C8.02566 14.2677 8.21526 14.2816 8.59447 14.3095C9.77227 14.3959 11.099 14.4667 12.2854 14.4667C13.5237 14.4667 14.8969 14.3896 16.0907 14.298C16.4564 14.27 16.6392 14.256 16.7581 14.2563C18.1545 14.2601 19.2825 15.1264 19.6463 16.4745C19.6773 16.5893 19.7069 16.748 19.7661 17.0653V17.0653C19.8314 17.4153 19.864 17.5902 19.8767 17.7324C20.024 19.3759 18.8162 20.8298 17.1735 20.9865C17.0314 21 16.8534 21 16.4975 21L12.2854 21H8.19989C7.87599 21 7.71405 21 7.58163 20.9882C6.00997 20.8487 4.81503 19.5155 4.84763 17.938C4.85038 17.8051 4.86803 17.6441 4.90334 17.3222V17.3222Z" stroke="black" stroke-width="1.4"/>
<path d="M8.5 7C8.5 4.79086 10.2909 3 12.5 3V3C14.7091 3 16.5 4.79086 16.5 7V7.57143C16.5 9.46498 14.965 11 13.0714 11V11H11.9286V11C10.035 11 8.5 9.46498 8.5 7.57143V7Z" stroke="black" stroke-width="1.4"/>
</g>
</svg>
