<svg width="18" height="17" viewBox="0 0 18 17" fill="none" xmlns="http://www.w3.org/2000/svg">
<path d="M0.666992 0.500001H16.6153C16.6884 0.499878 16.7601 0.518956 16.8235 0.555321C16.8868 0.591687 16.9395 0.644063 16.9762 0.7072C17.0129 0.770336 17.0324 0.842015 17.0327 0.915051C17.033 0.988087 17.0141 1.05991 16.9778 1.12333L14.0003 6.33333L16.9778 11.5433C17.0141 11.6068 17.033 11.6786 17.0327 11.7516C17.0324 11.8247 17.0129 11.8963 16.9762 11.9595C16.9395 12.0226 16.8868 12.075 16.8235 12.1113C16.7601 12.1477 16.6884 12.1668 16.6153 12.1667H2.33366V16.3333H0.666992V0.500001Z" fill="#F31B1B"/>
</svg>
