<svg width="20" height="20" viewBox="0 0 20 20" fill="none" xmlns="http://www.w3.org/2000/svg">
<path d="M4.58325 6.66675L4.85199 13.6538C4.93459 15.8016 6.69893 17.5001 8.84825 17.5001C9.57654 17.5001 10.3593 17.5001 11.1506 17.5001C13.2999 17.5001 15.0652 15.8016 15.1479 13.6538L15.4166 6.66675" stroke="#F31B1B" stroke-width="1.4" stroke-linecap="round"/>
<path d="M7.49985 4.09579L8.33319 4.09579C8.33319 4.09579 8.62082 2.67887 9.99985 2.67886C11.3789 2.67886 11.6665 4.0958 11.6665 4.0958L12.4999 4.0958" stroke="#F31B1B" stroke-width="1.4" stroke-linecap="round"/>
<path d="M11.6665 11.6667V13.3334" stroke="#F31B1B" stroke-width="1.4" stroke-linecap="round"/>
<path d="M8.33325 11.6667V13.3334" stroke="#F31B1B" stroke-width="1.4" stroke-linecap="round"/>
<path d="M16.6665 4.75L16.276 4.71583C12.0999 4.35041 7.89982 4.35041 3.72371 4.71583L3.33317 4.75" stroke="#F31B1B" stroke-width="1.4" stroke-linecap="round"/>
</svg>
