<svg width="20" height="20" viewBox="0 0 20 20" fill="none" xmlns="http://www.w3.org/2000/svg">
<path d="M12.2499 5.50008H6.41658L8.83325 3.08341C9.16659 2.75008 9.16659 2.25008 8.83325 1.91675C8.49992 1.58341 7.99992 1.58341 7.66658 1.91675L3.83325 5.75008C3.49992 6.08342 3.49992 6.58342 3.83325 6.91675L7.66658 10.8334C7.83325 11.0001 7.99992 11.0834 8.24992 11.0834C8.49992 11.0834 8.66659 11.0001 8.83325 10.8334C9.16659 10.5001 9.16659 10.0001 8.83325 9.66675L6.41658 7.16675H12.2499C13.6666 7.16675 14.7499 8.25008 14.7499 9.66675V17.5001C14.7499 18.0001 15.0833 18.3334 15.5833 18.3334C16.0833 18.3334 16.4166 18.0001 16.4166 17.5001V9.66675C16.4166 7.41675 14.4999 5.50008 12.2499 5.50008Z" fill="#0496ff"/>
</svg>
