<svg width="18" height="20" viewBox="0 0 18 20" fill="none" xmlns="http://www.w3.org/2000/svg">
<path d="M9.00005 1.66663C10.7117 1.66663 11.3817 2.53468 11.6043 3.47837C11.7474 4.08506 12.9232 4.78802 13.5258 4.62855C14.409 4.39482 15.4219 4.54513 16.2169 5.83329C17.0255 7.37147 16.3646 8.44611 15.5594 9.11832C15.1167 9.48783 15.1167 10.5121 15.5594 10.8816C16.3646 11.5538 17.0255 12.6284 16.2169 14.1666C15.4219 15.4548 14.409 15.6051 13.5258 15.3714C12.9232 15.2119 11.7474 15.9149 11.6043 16.5215C11.3817 17.4652 10.7117 18.3333 9.00005 18.3333C7.28842 18.3333 6.61846 17.4652 6.39584 16.5215C6.25272 15.9149 5.07687 15.2119 4.47428 15.3714C3.5911 15.6051 2.57825 15.4548 1.78317 14.1666C1.09078 12.8494 1.47595 11.8721 2.10659 11.1964C2.52639 10.7466 2.44389 9.4361 1.98889 9.02192C1.28926 8.38507 0.879961 7.37741 1.78317 5.83329C2.5259 4.56352 3.42656 4.30668 4.24099 4.45674C4.87139 4.57289 6.26885 3.78924 6.48145 3.18452C6.77064 2.36195 7.46815 1.66663 9.00005 1.66663Z" stroke="black" stroke-width="1.4"/>
<circle cx="9" cy="10" r="1.8" stroke="black" stroke-width="1.4"/>
</svg>
