<svg width="18" height="17" viewBox="0 0 18 17" fill="none" xmlns="http://www.w3.org/2000/svg">
<path d="M7.31722 1.61991C8.10438 0.394388 9.89562 0.39439 10.6828 1.61992L11.988 3.65205C12.2589 4.07371 12.6781 4.37833 13.1629 4.50561L15.4989 5.11901C16.9077 5.48893 17.4612 7.19251 16.5389 8.31985L15.0096 10.1892C14.6922 10.5771 14.5321 11.0699 14.5608 11.5703L14.6993 13.9815C14.7828 15.4357 13.3337 16.4885 11.9765 15.9597L9.72609 15.0829C9.25912 14.901 8.74087 14.901 8.27391 15.0829L6.02349 15.9597C4.66632 16.4885 3.21718 15.4357 3.3007 13.9815L3.43919 11.5703C3.46793 11.0699 3.30778 10.5771 2.99044 10.1892L1.46111 8.31985C0.538815 7.1925 1.09234 5.48893 2.50113 5.11901L4.83714 4.50561C5.32187 4.37833 5.74114 4.07371 6.01198 3.65204L7.31722 1.61991Z" stroke="#0496FF" stroke-width="1.4"/>
</svg>
