<svg width="25" height="24" viewBox="0 0 25 24" fill="none" xmlns="http://www.w3.org/2000/svg">
<g opacity="0.6">
<path d="M10.8172 4.61991C11.6044 3.39439 13.3956 3.39439 14.1828 4.61992L15.488 6.65205C15.7589 7.07371 16.1781 7.37833 16.6629 7.50561L18.9989 8.11901C20.4077 8.48893 20.9612 10.1925 20.0389 11.3198L18.5096 13.1892C18.1922 13.5771 18.0321 14.0699 18.0608 14.5703L18.1993 16.9815C18.2828 18.4357 16.8337 19.4885 15.4765 18.9597L13.2261 18.0829C12.7591 17.901 12.2409 17.901 11.7739 18.0829L9.52349 18.9597C8.16632 19.4885 6.71718 18.4357 6.8007 16.9815L6.93919 14.5703C6.96793 14.0699 6.80778 13.5771 6.49044 13.1892L4.96111 11.3198C4.03882 10.1925 4.59234 8.48893 6.00113 8.11901L8.33714 7.50561C8.82187 7.37833 9.24114 7.07371 9.51198 6.65204L10.8172 4.61991Z" fill="#FFBD26"/>
</g>
</svg>
