<svg width="24" height="24" viewBox="0 0 24 24" fill="none" xmlns="http://www.w3.org/2000/svg">
<g clip-path="url(#clip0_1457_54751)">
<path d="M3.4303 6.54544C3.77261 6.54544 4.08811 6.36808 4.28738 6.08975C5.9868 3.71602 8.68478 2.18181 11.7226 2.18181C14.7604 2.18181 17.4583 3.71602 19.1578 6.08975C19.357 6.36808 19.6725 6.54544 20.0148 6.54544H21.0631C21.4321 6.54544 21.6721 6.16 21.4898 5.83919C19.5015 2.34125 15.8713 0 11.7226 0C7.57385 0 3.94368 2.34125 1.95535 5.83919C1.773 6.16 2.013 6.54544 2.38201 6.54544H3.4303Z" fill="#FFBD26"/>
<path d="M4.28738 17.9102C4.08811 17.6319 3.77261 17.4545 3.4303 17.4545H2.38201C2.013 17.4545 1.773 17.84 1.95535 18.1608C3.94368 21.6587 7.57385 24 11.7226 24C15.8713 24 19.5015 21.6587 21.4898 18.1608C21.6721 17.84 21.4321 17.4545 21.0631 17.4545H20.0148C19.6725 17.4545 19.357 17.6319 19.1578 17.9102C17.4583 20.2839 14.7604 21.8181 11.7226 21.8181C8.68478 21.8181 5.9868 20.2839 4.28738 17.9102Z" fill="#FFBD26"/>
<path d="M5.56433 7.875C5.79187 7.875 5.97459 7.95498 6.11249 8.11495C6.25728 8.26764 6.32968 8.4676 6.32968 8.71481V14.8335C6.32968 15.088 6.25728 15.2952 6.11249 15.4551C5.97459 15.6078 5.79187 15.6842 5.56433 15.6842C5.31611 15.6842 5.11615 15.5897 4.96446 15.4006L1.49968 10.7216V14.8335C1.49968 15.088 1.43073 15.2952 1.29283 15.4551C1.16182 15.6078 0.982549 15.6842 0.755011 15.6842C0.527474 15.6842 0.344754 15.6078 0.206852 15.4551C0.0689508 15.2952 0 15.088 0 14.8335V8.71481C0 8.4676 0.0689508 8.26764 0.206852 8.11495C0.351649 7.95498 0.537816 7.875 0.765354 7.875C1.02047 7.875 1.21698 7.96952 1.35488 8.15857L4.81966 12.8048V8.71481C4.81966 8.4676 4.88861 8.26764 5.02651 8.11495C5.16441 7.95498 5.34369 7.875 5.56433 7.875Z" fill="#FFBD26"/>
<path d="M8.53217 15.6187C8.29085 15.6187 8.10468 15.5497 7.97367 15.4115C7.84267 15.2734 7.77716 15.077 7.77716 14.8226V8.72572C7.77716 8.47123 7.84267 8.27491 7.97367 8.13676C8.10468 7.99861 8.29085 7.92953 8.53217 7.92953H12.1935C12.7037 7.92953 12.9588 8.14767 12.9588 8.58393C12.9588 9.02747 12.7037 9.24924 12.1935 9.24924H9.34924V11.0488H11.9866C12.4968 11.0488 12.752 11.2706 12.752 11.7142C12.752 12.1504 12.4968 12.3686 11.9866 12.3686H9.34924V14.299H12.1935C12.7037 14.299 12.9588 14.5208 12.9588 14.9643C12.9588 15.4006 12.7037 15.6187 12.1935 15.6187H8.53217Z" fill="#FFBD26"/>
<path d="M22.623 8.38892C22.6825 8.21441 22.7717 8.08353 22.8906 7.99628C23.0161 7.90175 23.1548 7.85449 23.3067 7.85449C23.4983 7.85449 23.6602 7.91993 23.7923 8.05081C23.931 8.18169 24.0004 8.35983 24.0004 8.58524C24.0004 8.69431 23.9806 8.81428 23.9409 8.94516L21.8798 15.1511C21.8204 15.3256 21.7147 15.4637 21.5627 15.5655C21.4174 15.66 21.2556 15.7073 21.0772 15.7073C20.8988 15.7073 20.737 15.66 20.5917 15.5655C20.4463 15.4637 20.3439 15.3256 20.2845 15.1511L18.808 10.5593L17.2919 15.1511C17.2325 15.3256 17.1301 15.4637 16.9848 15.5655C16.8394 15.66 16.6776 15.7073 16.4992 15.7073C16.3275 15.7073 16.1656 15.66 16.0137 15.5655C15.8683 15.4637 15.7659 15.3256 15.7065 15.1511L13.6454 8.94516C13.6058 8.82155 13.5859 8.70521 13.5859 8.59615C13.5859 8.37074 13.6586 8.1926 13.8039 8.06172C13.9493 7.92357 14.121 7.85449 14.3192 7.85449C14.4778 7.85449 14.6198 7.90175 14.7453 7.99628C14.8774 8.08353 14.9732 8.21441 15.0327 8.38892L16.5587 13.2206L18.1441 8.41073C18.2036 8.23623 18.2961 8.10171 18.4216 8.00719C18.5537 7.91266 18.6924 7.8654 18.8378 7.8654C18.9897 7.8654 19.1284 7.91266 19.2539 8.00719C19.3794 8.10171 19.4719 8.23986 19.5314 8.42164L21.0475 13.3078L22.623 8.38892Z" fill="#FFBD26"/>
</g>
<defs>
<clipPath id="clip0_1457_54751">
<rect width="24" height="24" fill="white"/>
</clipPath>
</defs>
</svg>
