<svg width="250" height="177" viewBox="0 0 250 177" fill="none" xmlns="http://www.w3.org/2000/svg">
<g clip-path="url(#clip0_1051_48857)">
<path d="M127.679 176.625C135.198 176.625 141.294 170.501 141.294 162.947C141.294 155.393 135.198 149.269 127.679 149.269C120.16 149.269 114.064 155.393 114.064 162.947C114.064 170.501 120.16 176.625 127.679 176.625Z" fill="#0496FF"/>
<path d="M209.015 175.856C216.631 173.558 224.729 171.162 230.769 165.699C236.167 160.817 239.811 153.362 237.575 146.04C235.344 138.734 228.659 133.862 221.758 131.439C217.844 130.065 213.749 129.302 209.655 128.703C205.205 128.052 200.736 127.519 196.268 127.005C178.179 124.927 160.022 123.657 141.797 123.196C132.804 122.969 123.812 122.974 114.818 123.105C106.786 123.222 98.3259 123.219 90.8743 119.79C85.0796 117.123 79.8203 112.27 78.2057 105.894C76.3419 98.5328 79.7797 91.0369 84.7111 85.706C87.3106 82.896 90.3486 80.531 93.4826 78.3563C96.8826 75.9971 100.401 73.8049 103.996 71.7587C111.076 67.7304 118.478 64.3022 126.125 61.5095C129.897 60.1315 133.725 58.9426 137.587 57.8458C140.848 56.9196 144.118 55.9921 147.27 54.7303C153.362 52.2909 159.156 48.1589 160.705 41.3849C162.174 34.9647 159.698 27.9951 155.359 23.2257C150.338 17.7078 142.768 15.2889 135.511 14.8975C127.363 14.4581 119.403 16.5068 111.745 19.1067C103.577 21.8798 95.5856 25.0683 87.2452 27.3145C78.9745 29.5397 70.5438 31.1141 62.0296 32.0235C57.8617 32.4694 53.5677 32.9728 49.375 32.6315C45.8611 32.3454 42.3651 31.3072 39.7754 28.8017C37.5549 26.6535 36.2321 23.701 36.6869 20.5853C36.7695 20.0194 37.6252 20.26 37.5431 20.8224C36.9895 24.6152 39.5556 28.11 42.7179 29.9003C46.3726 31.9693 50.8198 31.9722 54.8888 31.7355C63.7114 31.2002 72.4743 29.9275 81.0866 27.9308C89.5491 25.9889 97.7095 23.2129 105.861 20.2476C113.602 17.4312 121.516 14.6824 129.787 14.0724C136.963 13.5431 144.512 14.5935 150.764 18.3611C156.258 21.6724 160.298 27.1945 161.586 33.5313C162.844 39.7235 161.101 45.956 156.436 50.2771C151.605 54.7511 144.982 56.6639 138.809 58.4255C130.98 60.6599 123.318 63.2717 115.903 66.663C108.386 70.0908 101.177 74.1624 94.3561 78.8329C87.7718 83.3533 81.2739 89.041 79.1915 97.1053C78.2215 100.862 78.4006 104.846 80.0236 108.394C81.4668 111.549 83.8436 114.203 86.6125 116.25C93.2188 121.133 101.545 122.136 109.525 122.236C118.487 122.348 127.45 122.044 136.415 122.192C154.687 122.493 172.92 123.61 191.117 125.544C195.676 126.029 200.23 126.564 204.778 127.151C208.869 127.68 212.973 128.204 216.995 129.142C224.146 130.81 231.105 134.016 235.55 140.108C237.523 142.748 238.745 145.877 239.086 149.161C239.397 152.587 238.562 156.02 237.02 159.069C233.607 165.816 227.214 170.107 220.424 172.926C216.788 174.437 213.015 175.581 209.251 176.717C208.702 176.882 208.468 176.021 209.015 175.856L209.015 175.856Z" fill="#F2F2F2"/>
<path d="M37.2615 27.8025C41.1846 27.8025 44.3648 24.6074 44.3648 20.6661C44.3648 16.7248 41.1846 13.5298 37.2615 13.5298C33.3385 13.5298 30.1582 16.7248 30.1582 20.6661C30.1582 24.6074 33.3385 27.8025 37.2615 27.8025Z" fill="#F2F2F2"/>
<path d="M86.5408 41.3313C90.4639 41.3313 93.6441 38.1363 93.6441 34.195C93.6441 30.2537 90.4639 27.0586 86.5408 27.0586C82.6178 27.0586 79.4375 30.2537 79.4375 34.195C79.4375 38.1363 82.6178 41.3313 86.5408 41.3313Z" fill="#F2F2F2"/>
<path d="M128.271 14.2727C132.194 14.2727 135.375 11.0777 135.375 7.13636C135.375 3.19506 132.194 0 128.271 0C124.348 0 121.168 3.19506 121.168 7.13636C121.168 11.0777 124.348 14.2727 128.271 14.2727Z" fill="#F2F2F2"/>
<path d="M154.318 44.6023C158.241 44.6023 161.421 41.4072 161.421 37.4659C161.421 33.5246 158.241 30.3296 154.318 30.3296C150.395 30.3296 147.215 33.5246 147.215 37.4659C147.215 41.4072 150.395 44.6023 154.318 44.6023Z" fill="#F2F2F2"/>
<path d="M119.097 79.6897C123.021 79.6897 126.201 76.4947 126.201 72.5533C126.201 68.612 123.021 65.417 119.097 65.417C115.174 65.417 111.994 68.612 111.994 72.5533C111.994 76.4947 115.174 79.6897 119.097 79.6897Z" fill="#F2F2F2"/>
<path d="M74.4061 96.6384C78.3291 96.6384 81.5094 93.4434 81.5094 89.5021C81.5094 85.5608 78.3291 82.3657 74.4061 82.3657C70.483 82.3657 67.3027 85.5608 67.3027 89.5021C67.3027 93.4434 70.483 96.6384 74.4061 96.6384Z" fill="#F2F2F2"/>
<path d="M121.762 123.102C125.685 123.102 128.865 119.907 128.865 115.966C128.865 112.025 125.685 108.83 121.762 108.83C117.838 108.83 114.658 112.025 114.658 115.966C114.658 119.907 117.838 123.102 121.762 123.102Z" fill="#F2F2F2"/>
<path d="M172.668 137.969C176.591 137.969 179.771 134.774 179.771 130.833C179.771 126.892 176.591 123.697 172.668 123.697C168.745 123.697 165.564 126.892 165.564 130.833C165.564 134.774 168.745 137.969 172.668 137.969Z" fill="#F2F2F2"/>
<path d="M232.158 134.699C236.081 134.699 239.261 131.504 239.261 127.563C239.261 123.621 236.081 120.426 232.158 120.426C228.235 120.426 225.055 123.621 225.055 127.563C225.055 131.504 228.235 134.699 232.158 134.699Z" fill="#F2F2F2"/>
<path d="M126.221 20.2208C104.943 20.3718 87.521 37.7435 87.2188 59.1188C87.216 59.3161 87.2147 60.7038 87.2149 62.5187C87.215 65.1798 88.2673 67.7319 90.1402 69.6137C92.0131 71.4954 94.5533 72.5527 97.2021 72.553H97.2021C98.5152 72.5527 99.8153 72.2925 101.028 71.7872C102.241 71.282 103.343 70.5415 104.271 69.6082C105.199 68.675 105.935 67.5671 106.436 66.348C106.938 65.1289 107.196 63.8225 107.194 62.5033C107.193 61.2687 107.193 60.4142 107.193 60.3618C107.192 57.0582 108.047 53.8114 109.675 50.9407C111.302 48.07 113.645 45.6743 116.473 43.9892C119.301 42.3042 122.518 41.3878 125.805 41.3303C129.093 41.2727 132.339 42.076 135.224 43.6611C138.109 45.2462 140.534 47.5585 142.259 50.3706C143.985 53.1826 144.952 56.3975 145.066 59.6991C145.18 63.0006 144.436 66.2751 142.908 69.2003C141.38 72.1256 139.121 74.6009 136.352 76.3827L136.356 76.3869C136.356 76.3869 122.14 85.5808 117.807 98.1931L117.81 98.194C117.048 100.778 116.662 103.459 116.664 106.153C116.664 107.261 116.729 116.953 116.854 124.82C116.898 127.535 118.002 130.123 119.928 132.026C121.855 133.93 124.449 134.997 127.151 134.996H127.151C128.509 134.996 129.853 134.726 131.107 134.202C132.36 133.678 133.498 132.911 134.455 131.943C135.412 130.975 136.17 129.827 136.683 128.565C137.197 127.302 137.457 125.95 137.449 124.586C137.405 117.381 137.382 108.992 137.382 108.383C137.382 100.639 144.818 92.9229 150.927 87.891C157.961 82.0966 163.022 74.2002 165.056 65.2928C165.505 63.459 165.753 61.581 165.795 59.6927C165.795 54.4851 164.77 49.3289 162.777 44.5212C160.785 39.7136 157.865 35.3495 154.187 31.6805C150.508 28.0114 146.143 25.1099 141.344 23.1431C136.544 21.1763 131.405 20.1831 126.221 20.2208Z" fill="#0496FF"/>
<path d="M249.649 177H0.353343C0.260055 176.999 0.170682 176.962 0.104813 176.896C0.0389444 176.829 0.00195312 176.739 0.00195312 176.646C0.00195312 176.552 0.0389444 176.462 0.104813 176.396C0.170682 176.329 0.260055 176.292 0.353343 176.292H249.649C249.742 176.292 249.832 176.329 249.898 176.395C249.964 176.462 250.001 176.552 250.001 176.646C250.001 176.739 249.964 176.83 249.898 176.896C249.832 176.962 249.742 177 249.649 177Z" fill="#3F3D56"/>
<path d="M186.004 81.1749C190.908 81.1749 194.883 77.1811 194.883 72.2544C194.883 67.3278 190.908 63.334 186.004 63.334C181.1 63.334 177.125 67.3278 177.125 72.2544C177.125 77.1811 181.1 81.1749 186.004 81.1749Z" fill="#263238"/>
<path d="M169.595 173.095H165.967L164.24 159.034H169.596L169.595 173.095Z" fill="#A0616A"/>
<path d="M163.377 172.053H170.375V176.48H158.971C158.971 175.899 159.085 175.323 159.306 174.786C159.528 174.249 159.852 173.761 160.261 173.35C160.67 172.939 161.156 172.613 161.691 172.39C162.225 172.168 162.798 172.053 163.377 172.053Z" fill="#263238"/>
<path d="M197.712 173.095H194.084L192.357 159.034H197.713L197.712 173.095Z" fill="#A0616A"/>
<path d="M191.492 172.053H198.49V176.48H187.086C187.086 175.899 187.2 175.323 187.421 174.786C187.643 174.249 187.967 173.761 188.376 173.35C188.786 172.939 189.271 172.613 189.806 172.39C190.34 172.168 190.913 172.053 191.492 172.053Z" fill="#263238"/>
<path d="M184.654 81.227C188.669 81.227 191.923 77.9572 191.923 73.9238C191.923 69.8904 188.669 66.6206 184.654 66.6206C180.639 66.6206 177.385 69.8904 177.385 73.9238C177.385 77.9572 180.639 81.227 184.654 81.227Z" fill="#A0616A"/>
<path d="M188.987 104.787L192.24 97.2794C193.03 95.5181 193.256 93.5539 192.888 91.6578C192.519 89.7617 191.574 88.0273 190.183 86.6938C189.897 86.41 189.593 86.1448 189.274 85.8999C187.669 84.6385 185.691 83.951 183.654 83.9463C182.283 83.9516 180.931 84.2539 179.688 84.8324C179.581 84.88 179.477 84.9305 179.371 84.9811C179.167 85.0792 178.965 85.1862 178.77 85.2963C177.496 86.0313 176.411 87.0568 175.604 88.2902C174.797 89.5236 174.29 90.9303 174.123 92.3969L172.688 104.481C172.327 105.43 159.446 139.684 163.951 165.836C163.999 166.115 164.134 166.372 164.338 166.568C164.541 166.764 164.802 166.89 165.081 166.927L169.648 167.552C169.982 167.597 170.32 167.515 170.595 167.32C170.87 167.125 171.062 166.833 171.131 166.502L178.794 129.806C178.841 129.578 178.964 129.373 179.141 129.223C179.319 129.073 179.541 128.988 179.773 128.98C180.005 128.972 180.233 129.042 180.42 129.18C180.607 129.317 180.743 129.514 180.806 129.738L191.633 168.328C191.71 168.608 191.877 168.855 192.107 169.032C192.337 169.208 192.619 169.303 192.909 169.303C192.995 169.303 193.081 169.295 193.166 169.279L198.745 168.2C199.069 168.139 199.359 167.959 199.558 167.694C199.757 167.429 199.85 167.1 199.82 166.77C199 157.585 194.643 111.576 188.987 104.787Z" fill="#263238"/>
<path d="M156.403 80.0018C156.352 80.4359 156.397 80.8759 156.534 81.2908C156.672 81.7057 156.898 82.0853 157.197 82.4029C157.496 82.7205 157.86 82.9684 158.265 83.1291C158.669 83.2898 159.104 83.3594 159.538 83.3331L163.602 93.1433L166.676 88.5658L162.346 79.9516C162.253 79.2216 161.897 78.5509 161.346 78.0668C160.794 77.5826 160.085 77.3186 159.352 77.3248C158.62 77.331 157.915 77.6069 157.371 78.1003C156.828 78.5937 156.483 79.2702 156.403 80.0017L156.403 80.0018Z" fill="#A0616A"/>
<path d="M184.25 114.665C184.682 114.613 185.097 114.467 185.467 114.236C185.836 114.006 186.151 113.696 186.389 113.33C186.627 112.964 186.782 112.55 186.843 112.117C186.904 111.685 186.87 111.244 186.744 110.825L195.293 104.57L190.146 102.633L182.816 108.871C182.131 109.131 181.565 109.635 181.225 110.287C180.885 110.939 180.794 111.693 180.971 112.407C181.148 113.122 181.579 113.746 182.183 114.162C182.788 114.578 183.523 114.757 184.25 114.665Z" fill="#A0616A"/>
<path d="M170.314 99.6828C169.986 99.6825 169.659 99.6501 169.338 99.5861C168.56 99.4374 167.831 99.0988 167.214 98.6002C166.597 98.1016 166.112 97.4582 165.802 96.7268L160.109 89.753C159.988 89.6056 159.901 89.434 159.852 89.2498C159.803 89.0656 159.794 88.8729 159.825 88.6849C159.856 88.4968 159.927 88.3175 160.032 88.1591C160.138 88.0008 160.276 87.8669 160.438 87.7665L164.488 85.2478C164.637 85.1548 164.804 85.0924 164.977 85.0644C165.151 85.0363 165.328 85.043 165.499 85.0842C165.67 85.1254 165.832 85.2003 165.974 85.3044C166.116 85.4085 166.236 85.5399 166.327 85.6909L170.34 92.3319L178.023 86.6268C178.635 86.3045 179.342 86.2141 180.015 86.3722C180.687 86.5302 181.281 86.926 181.687 87.4874C182.093 88.0488 182.285 88.7383 182.227 89.4298C182.169 90.1214 181.865 90.7689 181.371 91.254L173.702 98.2823C172.8 99.1798 171.583 99.6832 170.314 99.6828Z" fill="#263238"/>
<path d="M191.075 110.172C191.065 110.172 191.054 110.172 191.044 110.172C190.857 110.167 190.674 110.123 190.505 110.043C190.336 109.962 190.186 109.847 190.064 109.705L186.463 105.485C186.341 105.341 186.25 105.173 186.197 104.991C186.143 104.809 186.129 104.618 186.155 104.431C186.181 104.243 186.246 104.063 186.346 103.903C186.446 103.743 186.579 103.605 186.736 103.5L193.478 98.9844L187.37 91.6064C187.015 91.0113 186.884 90.3076 187.003 89.6239C187.121 88.9401 187.481 88.3221 188.015 87.8825C188.55 87.443 189.224 87.2114 189.914 87.23C190.605 87.2487 191.266 87.5163 191.776 87.9839L199.2 95.2727C199.784 95.809 200.231 96.4797 200.5 97.2273C200.77 97.9748 200.854 98.7769 200.747 99.5647C200.64 100.352 200.345 101.102 199.886 101.75C199.427 102.398 198.818 102.924 198.112 103.283L192.045 109.752C191.92 109.885 191.77 109.99 191.603 110.062C191.436 110.135 191.257 110.172 191.075 110.172Z" fill="#263238"/>
<path d="M182.806 94.6204C182.749 94.6203 182.691 94.6167 182.633 94.6093C182.383 94.5787 182.146 94.4764 181.951 94.3147C181.757 94.153 181.612 93.9385 181.535 93.6968L178.829 85.3623C178.762 85.1516 178.772 84.9234 178.859 84.7198C178.945 84.5162 179.103 84.351 179.301 84.2548L179.389 84.2132C179.469 84.1751 179.547 84.1375 179.628 84.1015C180.89 83.5136 182.263 83.207 183.654 83.2026C185.46 83.206 187.225 83.7389 188.733 84.736C188.936 84.8712 189.077 85.0808 189.127 85.3196C189.177 85.5585 189.131 85.8074 189 86.0129L183.924 94.002C183.805 94.1917 183.64 94.3479 183.445 94.4561C183.249 94.5642 183.029 94.6208 182.806 94.6204Z" fill="#E6E6E6"/>
<path d="M193.003 68.2725C194.608 68.2725 195.909 66.9656 195.909 65.3535C195.909 63.7414 194.608 62.4346 193.003 62.4346C191.398 62.4346 190.098 63.7414 190.098 65.3535C190.098 66.9656 191.398 68.2725 193.003 68.2725Z" fill="#263238"/>
<path d="M183.043 62.144C181.002 62.144 179.045 62.9586 177.602 64.4084C176.158 65.8583 175.348 67.8247 175.348 69.8751V73.1459H179.352L181.267 69.8751L181.842 73.1459H193.994L190.738 69.8751C190.738 67.8247 189.927 65.8583 188.484 64.4084C187.041 62.9586 185.084 62.144 183.043 62.144Z" fill="#263238"/>
<path d="M194.498 63.3543C194.819 62.3449 195.485 61.4817 196.377 60.9163C197.269 60.351 198.331 60.1197 199.376 60.2632C201.227 60.5741 202.691 62.0694 203.564 63.7395C204.436 65.4095 204.839 67.2787 205.425 69.0703C206.012 70.862 206.843 72.6634 208.324 73.8231C209.804 74.9829 212.076 75.2975 213.53 74.1044C213.364 75.3478 212.813 76.5073 211.955 77.4188C211.097 78.3304 209.975 78.9478 208.749 79.1839C207.522 79.42 206.253 79.2628 205.121 78.7344C203.988 78.2061 203.049 77.3334 202.438 76.2398C201.67 74.8685 201.472 73.2613 201.245 71.7049C201.017 70.1485 200.722 68.5382 199.806 67.2624C198.89 65.9866 197.175 65.1533 195.72 65.7344L194.498 63.3543Z" fill="#263238"/>
<path d="M100.023 67.8066C97.3744 67.8063 94.8342 66.749 92.9613 64.8673C91.0883 62.9855 90.0361 60.4334 90.0359 57.7723C90.0358 55.9574 90.0371 54.5697 90.0398 54.3724C90.124 48.1558 91.6823 42.049 94.5856 36.5586C89.8156 43.119 87.1928 51.0065 87.0801 59.1299C87.0773 59.3273 87.076 60.7149 87.0762 62.5299C87.0763 65.191 88.1286 67.7431 90.0015 69.6248C91.8745 71.5066 94.4147 72.5639 97.0635 72.5642C99.2401 72.5634 101.357 71.8488 103.092 70.5291C104.828 69.2093 106.087 67.3566 106.679 65.2522C104.85 66.8998 102.48 67.8096 100.023 67.8066Z" fill="#3F3D56"/>
<path d="M126.898 41.3634C129.96 41.5104 132.941 42.4017 135.584 43.961C138.228 45.5203 140.456 47.701 142.076 50.3157C143.696 52.9304 144.66 55.9011 144.886 58.9727C145.112 62.0442 144.592 65.1249 143.371 67.9502C145.137 65.8672 146.434 63.4262 147.176 60.7937C147.917 58.1612 148.084 55.399 147.667 52.6955C147.249 49.992 146.256 47.4107 144.756 45.1277C143.255 42.8447 141.282 40.9136 138.972 39.466C136.661 38.0184 134.067 37.0884 131.366 36.7394C128.665 36.3905 125.921 36.6307 123.32 37.4437C120.72 38.2568 118.325 39.6235 116.299 41.4508C114.272 43.2781 112.661 45.5229 111.576 48.0323C113.451 45.8163 115.808 44.0625 118.464 42.9062C121.121 41.75 124.006 41.2222 126.898 41.3634Z" fill="#3F3D56"/>
<path d="M129.97 130.25C127.268 130.251 124.674 129.184 122.748 127.28C120.821 125.377 119.717 122.788 119.673 120.074C119.548 112.207 119.483 102.515 119.483 101.407C119.481 98.7125 119.868 96.0316 120.63 93.4479L120.626 93.447C121.076 92.1501 121.619 90.8879 122.252 89.6704C120.31 92.2705 118.764 95.1468 117.666 98.2046L117.67 98.2055C116.908 100.789 116.522 103.47 116.523 106.165C116.523 107.273 116.588 116.965 116.714 124.832C116.757 127.546 117.862 130.134 119.788 132.038C121.714 133.942 124.308 135.008 127.01 135.008C129.238 135.007 131.406 134.281 133.189 132.938C134.971 131.595 136.272 129.708 136.896 127.56C135.003 129.294 132.532 130.254 129.97 130.25Z" fill="#3F3D56"/>
<path d="M37.454 173.23L41.0823 173.23L42.8087 159.169L37.4531 159.169L37.454 173.23Z" fill="#FFB8B8"/>
<path d="M48.0801 176.616L36.6761 176.616L36.6759 172.19L43.6738 172.189C44.8424 172.189 45.9631 172.656 46.7894 173.486C47.6158 174.316 48.08 175.442 48.0801 176.616L48.0801 176.616Z" fill="#263238"/>
<path d="M24.4306 173.231L28.0589 173.23L29.7853 159.169L24.4297 159.17L24.4306 173.231Z" fill="#FFB8B8"/>
<path d="M35.0547 176.616L23.6507 176.616L23.6505 172.19L30.6484 172.189C31.817 172.189 32.9377 172.656 33.764 173.486C34.5904 174.316 35.0546 175.442 35.0547 176.616L35.0547 176.616Z" fill="#263238"/>
<path d="M27.599 168.906L24.0547 168.719C23.872 168.709 23.693 168.663 23.528 168.584C23.3631 168.504 23.2155 168.392 23.0939 168.255C22.9722 168.118 22.879 167.957 22.8194 167.783C22.7599 167.61 22.7352 167.426 22.747 167.242L26.9831 120.123L46.4909 125.411L48.3704 124.896L42.4929 166.609C42.4428 166.923 42.2877 167.21 42.0532 167.424C41.8187 167.637 41.5188 167.763 41.203 167.782L37.3824 167.961C37.1913 167.972 37.0002 167.943 36.8209 167.875C36.6417 167.808 36.4784 167.704 36.3412 167.57C36.204 167.436 36.096 167.275 36.024 167.097C35.952 166.918 35.9175 166.727 35.9228 166.535L36.6151 141.5C36.6183 141.384 36.5783 141.271 36.5028 141.183C36.4274 141.096 36.3221 141.04 36.2076 141.026C36.0931 141.013 35.9777 141.043 35.8842 141.111C35.7907 141.179 35.7259 141.279 35.7025 141.392L29.0263 167.801C28.9633 168.114 28.794 168.396 28.5474 168.598C28.3008 168.8 27.9921 168.91 27.674 168.908C27.6491 168.908 27.6241 168.908 27.599 168.906Z" fill="#263238"/>
<path d="M38.1053 81.5693C42.1201 81.5693 45.3747 78.2995 45.3747 74.2661C45.3747 70.2326 42.1201 66.9629 38.1053 66.9629C34.0905 66.9629 30.8359 70.2326 30.8359 74.2661C30.8359 78.2995 34.0905 81.5693 38.1053 81.5693Z" fill="#FFB8B8"/>
<path d="M26.003 95.7217L26.8023 113.047L27.0912 119.351C27.1027 119.625 27.1955 119.89 27.3575 120.111C27.5196 120.332 27.7437 120.5 28.0011 120.592L46.7468 127.414C46.8982 127.471 47.0587 127.499 47.2202 127.498C47.4049 127.499 47.5878 127.462 47.7581 127.391C47.9284 127.319 48.0825 127.213 48.2114 127.081C48.3402 126.948 48.4411 126.79 48.5079 126.617C48.5748 126.444 48.6063 126.26 48.6005 126.074L47.832 94.9218C47.7815 92.3659 46.845 89.9078 45.184 87.9713C43.5229 86.0347 41.2414 84.741 38.7327 84.3133C38.5514 84.2855 38.367 84.2577 38.1825 84.233C36.6269 84.039 35.0479 84.1898 33.5565 84.6748C32.0652 85.1598 30.6978 85.9673 29.5505 87.0403C28.3624 88.1381 27.4289 89.4846 26.8159 90.9847C26.2029 92.4849 25.9254 94.1019 26.003 95.7217L26.003 95.7217Z" fill="#CCCCCC"/>
<path d="M55.6998 123.957C55.2564 123.819 54.8513 123.578 54.5169 123.255C54.1824 122.932 53.9279 122.534 53.7735 122.094C53.6192 121.654 53.5693 121.184 53.6278 120.722C53.6864 120.259 53.8518 119.817 54.1108 119.43L47.7539 110.937L53.2395 110.596L58.4351 118.713C58.9913 119.145 59.3784 119.76 59.5284 120.45C59.6784 121.14 59.5817 121.861 59.2554 122.487C58.9291 123.112 58.3939 123.603 57.7437 123.872C57.0936 124.14 56.37 124.171 55.6998 123.957H55.6998Z" fill="#FFB8B8"/>
<path d="M51.2311 117.893C51.0626 117.825 50.9095 117.723 50.7804 117.594C50.6513 117.466 50.5488 117.313 50.479 117.144L40.9018 94.2205C40.7139 93.7717 40.6159 93.2901 40.6133 92.8031C40.6108 92.3162 40.7038 91.8336 40.8869 91.3828C41.0701 90.932 41.34 90.5219 41.681 90.1759C42.022 89.8299 42.4276 89.5549 42.8745 89.3664C43.3214 89.178 43.8009 89.0799 44.2855 89.0777C44.7702 89.0755 45.2505 89.1693 45.6991 89.3537C46.1476 89.5381 46.5556 89.8095 46.8997 90.1524C47.2439 90.4952 47.5173 90.9029 47.7046 91.352L57.2817 114.276C57.4232 114.616 57.4248 114.999 57.2861 115.34C57.1473 115.681 56.8796 115.952 56.5416 116.095L52.2899 117.888C52.1225 117.959 51.9427 117.996 51.761 117.997C51.5792 117.998 51.3991 117.963 51.231 117.893L51.2311 117.893Z" fill="#CCCCCC"/>
<path d="M35.7668 117.085L44.9654 99.3899C45.1428 99.0496 45.4473 98.7939 45.8121 98.6789C46.1769 98.5638 46.5722 98.5989 46.9114 98.7763L60.2631 105.782C60.6018 105.96 60.8564 106.266 60.9709 106.633C61.0854 106.999 61.0504 107.396 60.8738 107.737L51.6752 125.432C51.4978 125.772 51.1933 126.028 50.8285 126.143C50.4637 126.258 50.0684 126.223 49.7292 126.045L36.3775 119.04C36.0388 118.862 35.7843 118.556 35.6698 118.189C35.5553 117.823 35.5902 117.425 35.7668 117.085Z" fill="#3F3D56"/>
<path d="M41.9368 109C41.7733 108.564 41.5104 108.172 41.1693 107.856C40.8282 107.539 40.4182 107.307 39.972 107.179C39.5258 107.05 39.0559 107.027 38.5996 107.113C38.1434 107.2 37.7135 107.392 37.3442 107.674L28.5306 101.8L28.5156 107.322L36.8874 112.053C37.3496 112.586 37.9835 112.937 38.6781 113.047C39.3726 113.157 40.0834 113.017 40.6858 112.653C41.2882 112.289 41.7437 111.723 41.9725 111.055C42.2012 110.387 42.1886 109.66 41.9368 109Z" fill="#FFB8B8"/>
<path d="M30.7909 110.242L23.5879 104.509C22.8086 104.247 22.1045 103.798 21.536 103.201C20.9675 102.605 20.5515 101.879 20.3238 101.085C20.0961 100.292 20.0635 99.4547 20.2287 98.6457C20.3939 97.8368 20.752 97.0802 21.2723 96.4409L27.8125 87.8298C28.267 87.2719 28.9061 86.8969 29.6132 86.7734C30.3202 86.6499 31.0478 86.7861 31.6631 87.1573C32.2784 87.5284 32.7401 88.1095 32.964 88.7945C33.1879 89.4795 33.1589 90.2226 32.8824 90.8879L27.7076 99.392L35.3123 103.016C35.4892 103.1 35.6462 103.221 35.773 103.371C35.8999 103.521 35.9936 103.696 36.0481 103.884C36.1026 104.073 36.1166 104.272 36.0892 104.466C36.0617 104.661 35.9935 104.848 35.8889 105.014L32.8192 109.895C32.7154 110.059 32.5784 110.2 32.4169 110.308C32.2554 110.417 32.0732 110.489 31.8819 110.522C31.8743 110.524 31.8667 110.525 31.859 110.526C31.6711 110.554 31.4794 110.544 31.2956 110.495C31.1119 110.446 30.9401 110.36 30.7909 110.242Z" fill="#CCCCCC"/>
<path d="M32.611 79.1554C32.5798 79.0637 32.5699 78.9661 32.5821 78.87C32.5943 78.7739 32.6282 78.6818 32.6812 78.6009C32.7342 78.52 32.805 78.4524 32.8881 78.4032C32.9711 78.354 33.0643 78.3246 33.1605 78.3171C33.3573 78.3279 33.55 78.3786 33.7268 78.4663C33.9037 78.5539 34.061 78.6766 34.1893 78.8271C34.4524 79.1318 34.7586 79.396 35.0983 79.6112C35.4499 79.7893 35.9268 79.7639 36.1273 79.4244C36.3156 79.1056 36.1866 78.6787 36.0726 78.3083C35.7826 77.3661 35.6203 76.389 35.5902 75.4032C35.5574 74.3029 35.7119 73.1547 36.3182 72.2965C37.1007 71.189 38.4999 70.7685 39.8241 70.799C41.1483 70.8295 42.451 71.2401 43.7627 71.4997C44.2155 71.5893 44.7477 71.6352 45.0506 71.2826C45.3726 70.9077 45.2544 70.3009 45.1174 69.7947C44.7619 68.4812 44.3848 67.1232 43.559 66.0623C42.6661 64.96 41.3906 64.2386 39.9893 64.0433C38.6441 63.8759 37.2785 64.0316 36.0049 64.4978C33.9298 65.1548 32.1038 66.4328 30.7712 68.1607C29.3975 69.9982 28.804 72.3074 29.1203 74.5835C29.4293 76.5658 30.4749 78.3567 32.0462 79.5951L32.611 79.1554Z" fill="#263238"/>
<path d="M124.679 173.289C122.745 172.443 121.033 171.156 119.679 169.532C118.325 167.907 117.364 165.988 116.874 163.927C116.385 161.865 116.378 159.718 116.856 157.653C117.334 155.589 118.282 153.665 119.627 152.032C118.068 153.175 116.769 154.639 115.816 156.326C114.862 158.013 114.277 159.884 114.099 161.815C113.921 163.746 114.154 165.694 114.782 167.528C115.41 169.362 116.419 171.041 117.742 172.453C119.066 173.865 120.673 174.978 122.457 175.719C124.242 176.459 126.162 176.81 128.092 176.748C130.021 176.686 131.916 176.212 133.649 175.358C135.383 174.504 136.915 173.289 138.146 171.795C136.227 173.204 133.973 174.083 131.611 174.345C129.248 174.608 126.858 174.243 124.679 173.289Z" fill="#3F3D56"/>
</g>
<defs>
<clipPath id="clip0_1051_48857">
<rect width="250" height="177" fill="white"/>
</clipPath>
</defs>
</svg>
