<svg width="20" height="15" viewBox="0 0 20 15" fill="none" xmlns="http://www.w3.org/2000/svg">
<path d="M1.66663 7.16667H6.66663C6.88764 7.16667 7.0996 7.07887 7.25588 6.92259C7.41216 6.76631 7.49996 6.55435 7.49996 6.33333V1.33333C7.49996 1.11232 7.41216 0.900358 7.25588 0.744078C7.0996 0.587797 6.88764 0.5 6.66663 0.5H1.66663C1.44561 0.5 1.23365 0.587797 1.07737 0.744078C0.921089 0.900358 0.833292 1.11232 0.833292 1.33333V6.33333C0.833292 6.55435 0.921089 6.76631 1.07737 6.92259C1.23365 7.07887 1.44561 7.16667 1.66663 7.16667ZM2.49996 2.16667H5.83329V5.5H2.49996V2.16667ZM19.1666 3.83333C19.1666 4.05435 19.0788 4.26631 18.9226 4.42259C18.7663 4.57887 18.5543 4.66667 18.3333 4.66667H9.99996C9.77894 4.66667 9.56698 4.57887 9.4107 4.42259C9.25442 4.26631 9.16663 4.05435 9.16663 3.83333C9.16663 3.61232 9.25442 3.40036 9.4107 3.24408C9.56698 3.0878 9.77894 3 9.99996 3H18.3333C18.5543 3 18.7663 3.0878 18.9226 3.24408C19.0788 3.40036 19.1666 3.61232 19.1666 3.83333ZM19.1666 12.1667C19.1666 12.3877 19.0788 12.5996 18.9226 12.7559C18.7663 12.9122 18.5543 13 18.3333 13H9.99996C9.77894 13 9.56698 12.9122 9.4107 12.7559C9.25442 12.5996 9.16663 12.3877 9.16663 12.1667C9.16663 11.9457 9.25442 11.7337 9.4107 11.5774C9.56698 11.4211 9.77894 11.3333 9.99996 11.3333H18.3333C18.5543 11.3333 18.7663 11.4211 18.9226 11.5774C19.0788 11.7337 19.1666 11.9457 19.1666 12.1667ZM2.69579 14.4167L1.06746 12.7275C0.913743 12.5686 0.82945 12.3551 0.833123 12.1341C0.836796 11.913 0.928133 11.7025 1.08704 11.5487C1.24595 11.395 1.45941 11.3107 1.68047 11.3144C1.90153 11.3181 2.11208 11.4094 2.26579 11.5683L3.30913 12.6517L6.08329 9.9075C6.15908 9.82216 6.25159 9.75331 6.35509 9.70519C6.45859 9.65708 6.57086 9.63075 6.68496 9.62781C6.79906 9.62488 6.91254 9.64542 7.01837 9.68815C7.1242 9.73088 7.22013 9.7949 7.3002 9.87623C7.38027 9.95756 7.44278 10.0545 7.48386 10.161C7.52494 10.2674 7.5437 10.3812 7.53899 10.4953C7.53428 10.6093 7.5062 10.7212 7.45648 10.8239C7.40676 10.9266 7.33647 11.0181 7.24996 11.0925L3.87829 14.4258C3.72294 14.5795 3.51346 14.666 3.29496 14.6667H3.28496C3.17512 14.6659 3.06653 14.6434 2.96542 14.6005C2.86431 14.5576 2.77267 14.4951 2.69579 14.4167Z" fill="black"/>
</svg>
