<svg width="316" height="223" viewBox="0 0 316 223" fill="none" xmlns="http://www.w3.org/2000/svg">
<g clip-path="url(#clip0_202_38797)">
<path d="M161.387 222.527C170.891 222.527 178.596 214.812 178.596 205.294C178.596 195.777 170.891 188.062 161.387 188.062C151.882 188.062 144.178 195.777 144.178 205.294C144.178 214.812 151.882 222.527 161.387 222.527Z" fill="#0496FF"/>
<path d="M264.195 221.559C273.822 218.664 284.058 215.645 291.693 208.762C298.516 202.611 303.122 193.219 300.295 183.995C297.475 174.789 289.026 168.651 280.302 165.598C275.355 163.867 270.179 162.906 265.005 162.152C259.38 161.331 253.73 160.659 248.084 160.013C225.219 157.394 202.268 155.794 179.231 155.213C167.864 154.927 156.499 154.934 145.13 155.099C134.977 155.246 124.284 155.243 114.865 150.921C107.541 147.561 100.893 141.448 98.8523 133.414C96.4965 124.14 100.842 114.696 107.075 107.98C110.361 104.44 114.201 101.46 118.162 98.7201C122.46 95.7478 126.907 92.9859 131.451 90.4079C140.4 85.3327 149.756 81.0135 159.422 77.4951C164.19 75.7589 169.029 74.261 173.91 72.8792C178.032 71.7123 182.166 70.5438 186.149 68.9541C193.85 65.8807 201.174 60.6749 203.132 52.1403C204.988 44.0516 201.859 35.2707 196.374 29.2618C190.028 22.3098 180.459 19.2623 171.286 18.7693C160.987 18.2157 150.926 20.7967 141.246 24.0724C130.922 27.5662 120.82 31.5834 110.278 34.4133C99.8241 37.2167 89.1677 39.2003 78.4058 40.346C73.1375 40.9078 67.7099 41.5421 62.4103 41.1121C57.9687 40.7516 53.5498 39.4436 50.2764 36.287C47.4697 33.5804 45.7977 29.8607 46.3725 25.9352C46.4769 25.2222 47.5585 25.5254 47.4548 26.234C46.755 31.0124 49.9987 35.4156 53.9957 37.671C58.6153 40.2778 64.2366 40.2814 69.3797 39.9832C80.5315 39.3088 91.6078 37.7054 102.494 35.1897C113.19 32.7432 123.505 29.2457 133.808 25.5097C143.593 21.9614 153.597 18.4983 164.051 17.7298C173.122 17.0629 182.664 18.3862 190.566 23.133C197.511 27.3048 202.618 34.2621 204.245 42.2457C205.835 50.0471 203.633 57.8994 197.735 63.3435C191.629 68.9803 183.257 71.3901 175.455 73.6096C165.559 76.4247 155.875 79.7153 146.502 83.9879C137 88.3065 127.888 93.4363 119.266 99.3206C110.944 105.016 102.731 112.182 100.098 122.342C98.8723 127.074 99.0986 132.094 101.15 136.564C102.974 140.539 105.979 143.882 109.478 146.461C117.829 152.614 128.353 153.878 138.44 154.003C149.768 154.144 161.097 153.762 172.429 153.948C195.524 154.327 218.571 155.735 241.572 158.171C247.335 158.782 253.091 159.457 258.84 160.197C264.01 160.862 269.198 161.523 274.282 162.705C283.321 164.805 292.117 168.845 297.736 176.52C300.229 179.847 301.774 183.789 302.205 187.926C302.599 192.243 301.543 196.568 299.594 200.409C295.28 208.909 287.198 214.316 278.616 217.868C274.02 219.77 269.252 221.212 264.493 222.643C263.8 222.851 263.504 221.767 264.195 221.559L264.195 221.559Z" fill="#F2F2F2"/>
<path d="M47.0977 35.0279C52.0565 35.0279 56.0763 31.0025 56.0763 26.0369C56.0763 21.0713 52.0565 17.0459 47.0977 17.0459C42.139 17.0459 38.1191 21.0713 38.1191 26.0369C38.1191 31.0025 42.139 35.0279 47.0977 35.0279Z" fill="#F2F2F2"/>
<path d="M109.387 52.0728C114.346 52.0728 118.365 48.0474 118.365 43.0818C118.365 38.1162 114.346 34.0908 109.387 34.0908C104.428 34.0908 100.408 38.1162 100.408 43.0818C100.408 48.0474 104.428 52.0728 109.387 52.0728Z" fill="#F2F2F2"/>
<path d="M162.135 17.982C167.094 17.982 171.113 13.9566 171.113 8.99101C171.113 4.02541 167.094 0 162.135 0C157.176 0 153.156 4.02541 153.156 8.99101C153.156 13.9566 157.176 17.982 162.135 17.982Z" fill="#F2F2F2"/>
<path d="M195.057 56.1939C200.015 56.1939 204.035 52.1685 204.035 47.2029C204.035 42.2373 200.015 38.2119 195.057 38.2119C190.098 38.2119 186.078 42.2373 186.078 47.2029C186.078 52.1685 190.098 56.1939 195.057 56.1939Z" fill="#F2F2F2"/>
<path d="M150.539 100.4C155.498 100.4 159.518 96.3746 159.518 91.409C159.518 86.4434 155.498 82.418 150.539 82.418C145.58 82.418 141.561 86.4434 141.561 91.409C141.561 96.3746 145.58 100.4 150.539 100.4Z" fill="#F2F2F2"/>
<path d="M94.0489 121.753C99.0076 121.753 103.028 117.728 103.028 112.762C103.028 107.797 99.0076 103.771 94.0489 103.771C89.0902 103.771 85.0703 107.797 85.0703 112.762C85.0703 117.728 89.0902 121.753 94.0489 121.753Z" fill="#F2F2F2"/>
<path d="M153.906 155.095C158.865 155.095 162.885 151.07 162.885 146.104C162.885 141.139 158.865 137.113 153.906 137.113C148.948 137.113 144.928 141.139 144.928 146.104C144.928 151.07 148.948 155.095 153.906 155.095Z" fill="#F2F2F2"/>
<path d="M218.252 173.826C223.211 173.826 227.231 169.8 227.231 164.835C227.231 159.869 223.211 155.844 218.252 155.844C213.293 155.844 209.273 159.869 209.273 164.835C209.273 169.8 213.293 173.826 218.252 173.826Z" fill="#F2F2F2"/>
<path d="M293.447 169.706C298.406 169.706 302.426 165.68 302.426 160.715C302.426 155.749 298.406 151.724 293.447 151.724C288.489 151.724 284.469 155.749 284.469 160.715C284.469 165.68 288.489 169.706 293.447 169.706Z" fill="#F2F2F2"/>
<path d="M159.544 25.4759C132.649 25.6661 110.627 47.5525 110.245 74.483C110.242 74.7316 110.24 76.4799 110.24 78.7666C110.24 82.1193 111.57 85.3346 113.938 87.7054C116.305 90.0762 119.516 91.4083 122.864 91.4087H122.864C124.524 91.4083 126.167 91.0805 127.7 90.4439C129.233 89.8073 130.626 88.8744 131.799 87.6986C132.972 86.5227 133.902 85.127 134.536 83.591C135.17 82.0551 135.496 80.4092 135.494 78.7472C135.493 77.1917 135.492 76.1151 135.492 76.049C135.492 71.887 136.573 67.7963 138.629 64.1796C140.686 60.5628 143.648 57.5445 147.223 55.4215C150.798 53.2985 154.863 52.144 159.019 52.0715C163.174 51.999 167.277 53.0111 170.924 55.0082C174.57 57.0052 177.635 59.9184 179.816 63.4613C181.998 67.0041 183.22 71.0546 183.364 75.2142C183.508 79.3737 182.568 83.4992 180.637 87.1846C178.706 90.8701 175.85 93.9887 172.35 96.2336L172.354 96.2389C172.354 96.2389 154.386 107.822 148.908 123.712L148.913 123.713C147.95 126.969 147.462 130.346 147.464 133.741C147.464 135.137 147.546 147.348 147.704 157.259C147.76 160.679 149.155 163.94 151.59 166.339C154.025 168.737 157.304 170.081 160.72 170.08H160.72C162.436 170.08 164.135 169.74 165.72 169.08C167.304 168.42 168.743 167.452 169.952 166.233C171.162 165.014 172.119 163.568 172.769 161.977C173.418 160.386 173.747 158.683 173.736 156.964C173.681 147.887 173.651 137.318 173.651 136.551C173.651 126.794 183.051 117.072 190.772 110.733C199.663 103.432 206.061 93.484 208.631 82.2616C209.199 79.9511 209.513 77.5851 209.566 75.2061C209.566 68.6451 208.269 62.1488 205.751 56.0917C203.233 50.0347 199.543 44.5364 194.893 39.9138C190.243 35.2913 184.726 31.6357 178.659 29.1578C172.592 26.6798 166.096 25.4285 159.544 25.4759Z" fill="#0496FF"/>
<path d="M315.555 223H0.44611C0.328194 222.999 0.215227 222.952 0.131969 222.868C0.0487101 222.785 0.00195312 222.672 0.00195312 222.554C0.00195312 222.435 0.0487101 222.322 0.131969 222.239C0.215227 222.155 0.328194 222.108 0.44611 222.107H315.555C315.673 222.107 315.787 222.154 315.87 222.238C315.954 222.322 316.001 222.435 316.001 222.554C316.001 222.672 315.954 222.785 315.87 222.869C315.787 222.953 315.673 223 315.555 223Z" fill="#3F3D56"/>
<path d="M235.108 102.271C241.306 102.271 246.331 97.2397 246.331 91.0327C246.331 84.8257 241.306 79.7939 235.108 79.7939C228.91 79.7939 223.885 84.8257 223.885 91.0327C223.885 97.2397 228.91 102.271 235.108 102.271Z" fill="#263238"/>
<path d="M214.368 218.081H209.782L207.6 200.365H214.369L214.368 218.081Z" fill="#A0616A"/>
<path d="M206.507 216.768H215.352V222.345H200.938C200.937 221.612 201.082 220.887 201.361 220.21C201.641 219.534 202.052 218.919 202.569 218.401C203.086 217.883 203.7 217.472 204.376 217.192C205.051 216.912 205.775 216.768 206.507 216.768Z" fill="#263238"/>
<path d="M249.909 218.081H245.323L243.141 200.365H249.91L249.909 218.081Z" fill="#A0616A"/>
<path d="M242.046 216.768H250.891V222.345H236.477C236.477 221.612 236.621 220.887 236.9 220.21C237.18 219.534 237.591 218.919 238.108 218.401C238.625 217.883 239.239 217.472 239.915 217.192C240.59 216.912 241.314 216.768 242.046 216.768Z" fill="#263238"/>
<path d="M233.401 102.337C238.476 102.337 242.59 98.2174 242.59 93.1357C242.59 88.0541 238.476 83.9346 233.401 83.9346C228.327 83.9346 224.213 88.0541 224.213 93.1357C224.213 98.2174 228.327 102.337 233.401 102.337Z" fill="#A0616A"/>
<path d="M238.88 132.02L242.991 122.561C243.99 120.342 244.276 117.867 243.81 115.478C243.344 113.09 242.15 110.904 240.391 109.224C240.03 108.867 239.646 108.533 239.243 108.224C237.214 106.635 234.714 105.769 232.138 105.763C230.407 105.769 228.697 106.15 227.125 106.879C226.99 106.939 226.86 107.003 226.725 107.066C226.467 107.19 226.213 107.325 225.966 107.463C224.355 108.39 222.984 109.682 221.964 111.236C220.944 112.79 220.303 114.562 220.092 116.41L218.278 131.634C217.821 132.829 201.54 175.986 207.234 208.934C207.295 209.286 207.466 209.61 207.723 209.857C207.98 210.104 208.31 210.263 208.663 210.309L214.436 211.096C214.857 211.154 215.285 211.049 215.633 210.804C215.98 210.559 216.222 210.19 216.31 209.774L225.995 163.541C226.056 163.254 226.211 162.995 226.435 162.806C226.66 162.618 226.941 162.51 227.234 162.5C227.527 162.49 227.814 162.578 228.051 162.752C228.288 162.925 228.46 163.172 228.539 163.455L242.224 212.074C242.322 212.427 242.532 212.739 242.824 212.961C243.115 213.182 243.471 213.303 243.837 213.303C243.946 213.302 244.055 213.292 244.162 213.273L251.214 211.913C251.624 211.836 251.991 211.609 252.242 211.275C252.493 210.942 252.611 210.527 252.572 210.111C251.536 198.539 246.029 140.573 238.88 132.02Z" fill="#263238"/>
<path d="M197.693 100.793C197.63 101.34 197.686 101.894 197.86 102.417C198.033 102.939 198.319 103.418 198.697 103.818C199.074 104.218 199.535 104.53 200.047 104.733C200.558 104.935 201.108 105.023 201.657 104.99L206.793 117.35L210.678 111.582L205.205 100.73C205.088 99.8097 204.638 98.9648 203.941 98.3548C203.244 97.7449 202.347 97.4123 201.421 97.4201C200.495 97.4278 199.604 97.7755 198.917 98.3971C198.23 99.0187 197.795 99.871 197.693 100.793L197.693 100.793Z" fill="#A0616A"/>
<path d="M232.892 144.465C233.438 144.4 233.963 144.216 234.431 143.925C234.898 143.634 235.296 143.245 235.596 142.784C235.897 142.322 236.093 141.801 236.17 141.256C236.248 140.71 236.205 140.155 236.045 139.628L246.851 131.746L240.345 129.307L231.081 137.165C230.215 137.493 229.499 138.128 229.069 138.949C228.639 139.771 228.525 140.721 228.748 141.621C228.972 142.521 229.517 143.307 230.281 143.832C231.044 144.356 231.974 144.581 232.892 144.465Z" fill="#A0616A"/>
<path d="M215.277 125.589C214.863 125.589 214.45 125.548 214.043 125.468C213.06 125.28 212.139 124.854 211.359 124.225C210.58 123.597 209.966 122.787 209.574 121.865L202.378 113.079C202.226 112.893 202.115 112.677 202.053 112.445C201.991 112.213 201.98 111.97 202.019 111.733C202.058 111.496 202.148 111.27 202.281 111.071C202.415 110.871 202.59 110.703 202.794 110.576L207.913 107.403C208.102 107.286 208.312 107.207 208.532 107.172C208.751 107.136 208.976 107.145 209.192 107.197C209.408 107.249 209.612 107.343 209.791 107.474C209.971 107.605 210.123 107.771 210.238 107.961L215.31 116.328L225.022 109.14C225.795 108.734 226.689 108.62 227.539 108.819C228.389 109.019 229.14 109.517 229.653 110.225C230.166 110.932 230.408 111.801 230.335 112.672C230.262 113.543 229.878 114.359 229.253 114.97L219.559 123.825C218.42 124.956 216.881 125.59 215.277 125.589Z" fill="#263238"/>
<path d="M241.52 138.804C241.507 138.804 241.494 138.804 241.481 138.804C241.245 138.798 241.012 138.743 240.799 138.641C240.586 138.54 240.396 138.395 240.242 138.216L235.691 132.898C235.535 132.717 235.421 132.505 235.353 132.276C235.286 132.048 235.268 131.807 235.301 131.571C235.333 131.335 235.416 131.108 235.542 130.906C235.669 130.704 235.837 130.531 236.035 130.398L244.558 124.709L236.837 115.413C236.387 114.664 236.223 113.777 236.372 112.916C236.522 112.054 236.976 111.276 237.652 110.722C238.328 110.168 239.18 109.876 240.053 109.9C240.926 109.923 241.761 110.26 242.406 110.85L251.79 120.033C252.529 120.708 253.092 121.553 253.433 122.495C253.774 123.437 253.881 124.448 253.746 125.44C253.61 126.433 253.237 127.377 252.657 128.193C252.077 129.009 251.307 129.672 250.415 130.125L242.745 138.275C242.588 138.442 242.398 138.575 242.187 138.666C241.977 138.757 241.75 138.804 241.52 138.804Z" fill="#263238"/>
<path d="M231.065 119.211C230.992 119.211 230.919 119.207 230.847 119.197C230.53 119.159 230.23 119.03 229.984 118.826C229.738 118.622 229.556 118.352 229.459 118.048L226.038 107.547C225.953 107.282 225.966 106.994 226.075 106.738C226.185 106.481 226.384 106.273 226.635 106.152L226.746 106.099C226.846 106.051 226.946 106.004 227.048 105.959C228.643 105.218 230.379 104.832 232.137 104.826C234.419 104.83 236.65 105.502 238.557 106.758C238.812 106.928 238.991 107.192 239.054 107.493C239.117 107.794 239.06 108.108 238.894 108.367L232.478 118.432C232.328 118.671 232.119 118.868 231.872 119.004C231.625 119.14 231.347 119.212 231.065 119.211Z" fill="#E6E6E6"/>
<path d="M243.956 86.0153C245.984 86.0153 247.628 84.3688 247.628 82.3377C247.628 80.3067 245.984 78.6602 243.956 78.6602C241.927 78.6602 240.283 80.3067 240.283 82.3377C240.283 84.3688 241.927 86.0153 243.956 86.0153Z" fill="#263238"/>
<path d="M231.367 78.2949C228.788 78.2949 226.314 79.3211 224.49 81.1478C222.665 82.9744 221.641 85.4519 221.641 88.0352V92.1561H226.702L229.123 88.0352L229.849 92.1561H245.209L241.094 88.0352C241.094 85.4519 240.069 82.9744 238.245 81.1478C236.421 79.3211 233.947 78.2949 231.367 78.2949Z" fill="#263238"/>
<path d="M245.844 79.8188C246.25 78.5471 247.091 77.4595 248.218 76.7473C249.346 76.035 250.688 75.7436 252.009 75.9243C254.35 76.3161 256.2 78.2 257.303 80.3041C258.405 82.4082 258.914 84.7631 259.656 87.0204C260.397 89.2776 261.448 91.5472 263.319 93.0084C265.191 94.4695 268.062 94.8659 269.9 93.3628C269.69 94.9293 268.993 96.3901 267.909 97.5385C266.824 98.687 265.407 99.4649 263.857 99.7624C262.307 100.06 260.702 99.8617 259.271 99.1961C257.839 98.5304 256.653 97.4309 255.879 96.0531C254.91 94.3254 254.659 92.3005 254.372 90.3397C254.084 88.3788 253.711 86.35 252.553 84.7426C251.395 83.1352 249.228 82.0854 247.389 82.8175L245.844 79.8188Z" fill="#263238"/>
<path d="M126.43 85.4286C123.081 85.4282 119.871 84.0961 117.503 81.7253C115.136 79.3545 113.806 76.1392 113.806 72.7865C113.805 70.4998 113.807 68.7515 113.81 68.5029C113.917 60.6708 115.887 52.9769 119.556 46.0596C113.527 54.3249 110.212 64.2623 110.069 74.4969C110.066 74.7455 110.064 76.4938 110.064 78.7805C110.065 82.1332 111.395 85.3485 113.762 87.7193C116.13 90.0901 119.34 91.4222 122.688 91.4226C125.44 91.4215 128.115 90.5213 130.309 88.8585C132.503 87.1958 134.094 84.8615 134.842 82.2103C132.531 84.286 129.534 85.4323 126.43 85.4286Z" fill="#3F3D56"/>
<path d="M160.4 52.1134C164.27 52.2985 168.038 53.4215 171.38 55.3861C174.721 57.3506 177.537 60.0979 179.585 63.3922C181.633 66.6864 182.852 70.4291 183.137 74.299C183.422 78.1688 182.765 82.0502 181.222 85.6097C183.454 82.9853 185.094 79.91 186.031 76.5933C186.968 73.2766 187.18 69.7966 186.652 66.3905C186.124 62.9844 184.869 59.7323 182.972 56.8559C181.076 53.9796 178.582 51.5466 175.661 49.7228C172.74 47.899 169.461 46.7273 166.047 46.2876C162.633 45.848 159.165 46.1506 155.878 47.175C152.591 48.1993 149.564 49.9213 147.002 52.2234C144.44 54.5256 142.405 57.3539 141.033 60.5154C143.403 57.7234 146.382 55.5139 149.74 54.0571C153.098 52.6004 156.745 51.9354 160.4 52.1134Z" fill="#3F3D56"/>
<path d="M164.284 164.1C160.868 164.101 157.589 162.757 155.155 160.359C152.72 157.96 151.324 154.7 151.269 151.28C151.11 141.369 151.028 129.157 151.028 127.762C151.026 124.367 151.514 120.989 152.477 117.734L152.473 117.733C153.042 116.099 153.729 114.509 154.528 112.975C152.073 116.25 150.12 119.874 148.732 123.727L148.736 123.728C147.773 126.983 147.285 130.361 147.287 133.756C147.287 135.151 147.369 147.363 147.528 157.274C147.583 160.694 148.979 163.954 151.414 166.353C153.848 168.751 157.127 170.095 160.543 170.094C163.359 170.094 166.099 169.179 168.352 167.487C170.605 165.795 172.249 163.418 173.039 160.711C170.646 162.896 167.522 164.105 164.284 164.1Z" fill="#3F3D56"/>
<path d="M47.341 218.251L51.9272 218.25L54.1093 200.535L47.3398 200.536L47.341 218.251Z" fill="#FFB8B8"/>
<path d="M60.7715 222.516L46.3568 222.516L46.3566 216.939L55.2019 216.939C56.679 216.939 58.0956 217.526 59.1401 218.572C60.1846 219.618 60.7714 221.036 60.7715 222.516L60.7715 222.516Z" fill="#263238"/>
<path d="M30.88 218.251L35.4662 218.25L37.6484 200.535L30.8789 200.536L30.88 218.251Z" fill="#FFB8B8"/>
<path d="M44.3105 222.516L29.8959 222.516L29.8956 216.939L38.741 216.939C40.2181 216.939 41.6347 217.526 42.6792 218.572C43.7236 219.618 44.3105 221.036 44.3105 222.516L44.3105 222.516Z" fill="#263238"/>
<path d="M34.8866 212.803L30.4066 212.567C30.1756 212.555 29.9493 212.497 29.7408 212.396C29.5323 212.296 29.3458 212.155 29.1921 211.982C29.0383 211.809 28.9204 211.607 28.8451 211.388C28.7699 211.169 28.7388 210.937 28.7536 210.706L34.1081 151.341L58.7659 158.004L61.1416 157.355L53.7125 209.909C53.6492 210.304 53.4531 210.666 53.1567 210.935C52.8602 211.204 52.4812 211.363 52.082 211.387L47.2527 211.612C47.0112 211.625 46.7696 211.589 46.5431 211.504C46.3166 211.419 46.1101 211.288 45.9367 211.119C45.7633 210.95 45.6268 210.747 45.5357 210.523C45.4447 210.298 45.4011 210.058 45.4078 209.815L46.2828 178.273C46.2869 178.128 46.2363 177.985 46.141 177.875C46.0457 177.765 45.9125 177.694 45.7678 177.677C45.623 177.66 45.4772 177.698 45.3591 177.784C45.2409 177.869 45.159 177.996 45.1294 178.138L36.6907 211.41C36.611 211.805 36.3971 212.16 36.0854 212.414C35.7737 212.669 35.3835 212.807 34.9813 212.806C34.9499 212.806 34.9183 212.805 34.8866 212.803Z" fill="#263238"/>
<path d="M48.1631 102.768C53.2377 102.768 57.3516 98.6481 57.3516 93.5664C57.3516 88.4847 53.2377 84.3652 48.1631 84.3652C43.0884 84.3652 38.9746 88.4847 38.9746 93.5664C38.9746 98.6481 43.0884 102.768 48.1631 102.768Z" fill="#FFB8B8"/>
<path d="M32.8657 120.598L33.876 142.427L34.2412 150.368C34.2558 150.714 34.373 151.048 34.5779 151.326C34.7828 151.605 35.066 151.816 35.3914 151.933L59.0859 160.528C59.2773 160.599 59.4801 160.635 59.6843 160.633C59.9177 160.634 60.1489 160.588 60.3642 160.498C60.5794 160.407 60.7743 160.274 60.9371 160.107C61.1 159.94 61.2275 159.741 61.312 159.523C61.3965 159.305 61.4363 159.073 61.429 158.839L60.4576 119.591C60.3938 116.371 59.2101 113.274 57.1105 110.834C55.011 108.394 52.1271 106.764 48.9561 106.225C48.727 106.19 48.4938 106.155 48.2606 106.124C46.2943 105.88 44.2985 106.07 42.4134 106.681C40.5284 107.292 38.7999 108.309 37.3497 109.661C35.8481 111.044 34.6681 112.74 33.8933 114.63C33.1184 116.52 32.7677 118.558 32.8657 120.598L32.8657 120.598Z" fill="#CCCCCC"/>
<path d="M70.4049 156.172C69.8445 155.998 69.3325 155.695 68.9097 155.288C68.487 154.88 68.1652 154.379 67.9701 153.825C67.775 153.271 67.7119 152.679 67.7859 152.096C67.86 151.513 68.069 150.956 68.3964 150.468L60.3613 139.769L67.2951 139.339L73.8624 149.565C74.5654 150.109 75.0547 150.884 75.2443 151.754C75.4338 152.623 75.3117 153.531 74.8992 154.32C74.4867 155.108 73.8103 155.726 72.9885 156.064C72.1667 156.403 71.252 156.441 70.4049 156.172H70.4049Z" fill="#FFB8B8"/>
<path d="M64.7549 148.532C64.542 148.445 64.3483 148.318 64.1852 148.156C64.022 147.994 63.8925 147.801 63.8042 147.588L51.6987 118.707C51.4612 118.142 51.3373 117.535 51.334 116.921C51.3308 116.308 51.4483 115.7 51.6799 115.132C51.9115 114.564 52.2525 114.047 52.6836 113.611C53.1147 113.175 53.6273 112.829 54.1922 112.591C54.757 112.354 55.3631 112.23 55.9757 112.228C56.5883 112.225 57.1955 112.343 57.7624 112.575C58.3294 112.808 58.8451 113.15 59.2801 113.582C59.715 114.014 60.0607 114.527 60.2974 115.093L72.4028 143.975C72.5818 144.403 72.5838 144.885 72.4084 145.315C72.233 145.744 71.8946 146.087 71.4674 146.267L66.0932 148.526C65.8816 148.615 65.6544 148.662 65.4246 148.663C65.1949 148.664 64.9672 148.62 64.7548 148.532L64.7549 148.532Z" fill="#CCCCCC"/>
<path d="M45.2083 147.513L56.8353 125.22C57.0596 124.791 57.4445 124.469 57.9056 124.324C58.3667 124.179 58.8664 124.223 59.2951 124.447L76.1717 133.273C76.5998 133.498 76.9216 133.883 77.0663 134.345C77.211 134.807 77.1669 135.307 76.9436 135.736L65.3166 158.03C65.0924 158.458 64.7075 158.781 64.2464 158.926C63.7852 159.07 63.2855 159.026 62.8569 158.803L45.9803 149.977C45.5521 149.752 45.2304 149.367 45.0857 148.905C44.941 148.443 44.9851 147.943 45.2083 147.513Z" fill="#3F3D56"/>
<path d="M53.0073 137.328C52.8006 136.778 52.4684 136.284 52.0372 135.886C51.606 135.487 51.0878 135.195 50.5238 135.033C49.9599 134.871 49.3659 134.842 48.7892 134.951C48.2125 135.059 47.669 135.301 47.2023 135.657L36.0619 128.257L36.043 135.213L46.6249 141.174C47.2091 141.845 48.0104 142.288 48.8883 142.427C49.7662 142.565 50.6646 142.389 51.4261 141.93C52.1875 141.471 52.7633 140.759 53.0524 139.917C53.3416 139.076 53.3256 138.159 53.0073 137.328Z" fill="#FFB8B8"/>
<path d="M38.9211 138.892L29.8165 131.67C28.8316 131.339 27.9416 130.773 27.223 130.022C26.5044 129.27 25.9786 128.356 25.6908 127.356C25.4029 126.356 25.3617 125.301 25.5705 124.282C25.7793 123.263 26.232 122.31 26.8897 121.504L35.1564 110.655C35.7309 109.953 36.5388 109.48 37.4325 109.324C38.3262 109.169 39.2459 109.341 40.0236 109.808C40.8013 110.276 41.385 111.008 41.668 111.871C41.9509 112.734 41.9143 113.67 41.5648 114.508L35.0239 125.223L44.6362 129.788C44.8598 129.894 45.0582 130.047 45.2186 130.235C45.3789 130.424 45.4974 130.645 45.5663 130.882C45.6352 131.12 45.6529 131.37 45.6182 131.616C45.5835 131.861 45.4972 132.096 45.3651 132.305L41.4849 138.454C41.3537 138.662 41.1805 138.84 40.9764 138.976C40.7723 139.112 40.542 139.204 40.3002 139.245C40.2906 139.247 40.2809 139.249 40.2713 139.25C40.0337 139.286 39.7914 139.273 39.5591 139.211C39.3269 139.149 39.1097 139.041 38.9211 138.892Z" fill="#CCCCCC"/>
<path d="M41.2206 99.7272C41.1811 99.6117 41.1686 99.4887 41.184 99.3676C41.1994 99.2466 41.2422 99.1306 41.3093 99.0287C41.3763 98.9267 41.4657 98.8415 41.5707 98.7795C41.6757 98.7176 41.7935 98.6805 41.915 98.6711C42.1639 98.6847 42.4074 98.7486 42.631 98.859C42.8545 98.9694 43.0533 99.1241 43.2155 99.3136C43.548 99.6975 43.9351 100.03 44.3644 100.302C44.8089 100.526 45.4117 100.494 45.6651 100.066C45.9031 99.6645 45.74 99.1266 45.596 98.66C45.2294 97.473 45.0243 96.2419 44.9862 94.9999C44.9447 93.6137 45.14 92.167 45.9064 91.0858C46.8955 89.6904 48.6641 89.1607 50.3379 89.1991C52.0117 89.2375 53.6583 89.7549 55.3162 90.082C55.8886 90.1949 56.5613 90.2526 56.9442 89.8084C57.3512 89.336 57.2017 88.5716 57.0286 87.9339C56.5793 86.279 56.1027 84.568 55.0588 83.2315C53.9301 81.8427 52.3179 80.9337 50.5467 80.6877C48.8464 80.4768 47.1203 80.673 45.5104 81.2603C42.8874 82.0881 40.5795 83.6982 38.8951 85.8751C37.1587 88.1902 36.4084 91.0996 36.8083 93.9671C37.1989 96.4646 38.5205 98.7209 40.5066 100.281L41.2206 99.7272Z" fill="#263238"/>
<path d="M157.595 218.324C155.151 217.258 152.987 215.638 151.275 213.591C149.563 211.544 148.349 209.126 147.73 206.529C147.111 203.932 147.103 201.226 147.706 198.626C148.31 196.025 149.509 193.6 151.209 191.543C149.238 192.984 147.596 194.828 146.391 196.953C145.187 199.078 144.447 201.436 144.222 203.869C143.997 206.302 144.291 208.756 145.085 211.066C145.879 213.377 147.154 215.492 148.827 217.271C150.5 219.051 152.531 220.453 154.786 221.386C157.042 222.319 159.47 222.761 161.909 222.683C164.348 222.604 166.742 222.007 168.933 220.931C171.124 219.855 173.061 218.325 174.617 216.442C172.191 218.217 169.343 219.325 166.357 219.656C163.37 219.986 160.349 219.527 157.595 218.324Z" fill="#3F3D56"/>
</g>
<defs>
<clipPath id="clip0_202_38797">
<rect width="316" height="223" fill="white"/>
</clipPath>
</defs>
</svg>
