<svg width="14" height="21" viewBox="0 0 14 21" fill="none" xmlns="http://www.w3.org/2000/svg">
<path d="M12 11V17.67C12 18.5902 12 19.0503 11.7494 19.2871C11.6703 19.3619 11.5767 19.4197 11.4744 19.457C11.1506 19.5753 10.7391 19.3695 9.91601 18.958L8.60997 18.305C7.9092 17.9546 7.55881 17.7794 7.18519 17.7447C7.062 17.7332 6.938 17.7332 6.81481 17.7447C6.44119 17.7794 6.0908 17.9546 5.39003 18.305L4.08399 18.958C3.26094 19.3695 2.84942 19.5753 2.52558 19.457C2.42331 19.4197 2.32974 19.3619 2.25059 19.2871C2 19.0503 2 18.5902 2 17.67V11" stroke="#0496FF" stroke-width="1.4" stroke-linejoin="round"/>
<circle cx="7" cy="7" r="6.3" stroke="#0496FF" stroke-width="1.4"/>
<path d="M6.68461 4.4043C6.84476 4.199 7.15524 4.199 7.31539 4.4043L8.0578 5.356C8.10403 5.41526 8.16602 5.46029 8.23666 5.48595L9.3712 5.89793C9.61593 5.9868 9.71188 6.28209 9.56612 6.49783L8.89042 7.498C8.84834 7.56028 8.82467 7.63315 8.8221 7.70827L8.78087 8.91459C8.77198 9.17481 8.52079 9.3573 8.27056 9.28535L7.11054 8.95179C7.03831 8.93102 6.96169 8.93102 6.88946 8.95179L5.72944 9.28535C5.47921 9.3573 5.22802 9.17481 5.21913 8.91459L5.1779 7.70827C5.17533 7.63315 5.15166 7.56028 5.10958 7.498L4.43388 6.49783C4.28812 6.28209 4.38407 5.9868 4.6288 5.89793L5.76334 5.48595C5.83398 5.46029 5.89597 5.41526 5.9422 5.356L6.68461 4.4043Z" stroke="#0496FF" stroke-width="1.4"/>
</svg>
