<svg width="21" height="20" viewBox="0 0 21 20" fill="none" xmlns="http://www.w3.org/2000/svg">
<path d="M1.37394 15.3629C1.40751 15.0364 1.42429 14.8732 1.44503 14.7591C1.71332 13.2824 2.90222 12.2922 4.40301 12.2954C4.51899 12.2956 4.70692 12.3106 5.08278 12.3405C6.19542 12.429 7.4236 12.5 8.5 12.5C9.52231 12.5 10.6169 12.4359 11.601 12.3537C11.9764 12.3223 12.1641 12.3066 12.2701 12.3052C13.7252 12.2867 14.8685 13.1688 15.2197 14.581C15.2453 14.6838 15.2723 14.8385 15.3264 15.1478V15.1478C15.3798 15.4534 15.4066 15.6062 15.4178 15.7305C15.5673 17.3886 14.3382 18.8513 12.6791 18.9896C12.5547 19 12.3996 19 12.0894 19L8.29882 19H4.65623C4.35131 19 4.19886 19 4.0739 18.9895C2.4978 18.8575 1.29489 17.5246 1.32479 15.9433C1.32716 15.8179 1.34275 15.6663 1.37394 15.3629V15.3629Z" stroke="#0496FF" stroke-width="1.4"/>
<path d="M20 5H18.2667L16 5" stroke="#0496FF" stroke-width="1.4" stroke-linecap="round"/>
<path d="M18 3L18 5L18 7" stroke="#0496FF" stroke-width="1.4" stroke-linecap="round"/>
<path d="M5 4.5C5 2.567 6.567 1 8.5 1V1C10.433 1 12 2.567 12 4.5V5C12 6.65685 10.6569 8 9 8V8H8V8C6.34315 8 5 6.65685 5 5V4.5Z" stroke="#0496FF" stroke-width="1.4"/>
</svg>
