<svg width="22" height="23" viewBox="0 0 22 23" fill="none" xmlns="http://www.w3.org/2000/svg">
<path d="M14.4435 2.3737C14.8403 1.90136 15.4885 1.78902 15.9802 2.08246C16.6302 2.47038 17.3437 2.93168 17.8333 3.34312C18.3142 3.74714 18.8663 4.34448 19.3392 4.8966C19.7068 5.32598 19.7067 5.97689 19.3119 6.44671L9.15705 18.5326C8.81602 18.9385 8.35348 19.2084 7.84643 19.2926C7.12447 19.4124 6.15637 19.5574 5.32426 19.6297C4.90592 19.666 4.54219 19.6821 4.26931 19.6714C4.18723 19.6682 4.12037 19.6628 4.06748 19.6564C4.05203 19.6054 4.03518 19.5404 4.01787 19.4601C3.96033 19.1932 3.91347 18.8321 3.87716 18.4138C3.80494 17.5817 3.78094 16.6031 3.77452 15.8713C3.77002 15.3573 3.95621 14.8552 4.29725 14.4493L14.4435 2.3737ZM3.94175 19.6325C3.94187 19.6324 3.94398 19.633 3.9478 19.6346C3.94354 19.6333 3.94163 19.6325 3.94175 19.6325ZM4.10958 19.7705C4.11175 19.774 4.11274 19.776 4.1127 19.7761C4.11265 19.7762 4.11157 19.7744 4.10958 19.7705Z" stroke="black" stroke-width="1.4"/>
<path d="M13.0127 4.73242C13.0127 4.73242 14.1838 6.41404 15.2059 7.08697C16.228 7.75991 17.5003 8.49964 17.5003 8.49964" stroke="black" stroke-width="1.4" stroke-linecap="round"/>
</svg>
