<svg width="20" height="20" viewBox="0 0 20 20" fill="none" xmlns="http://www.w3.org/2000/svg">
<path d="M7.53028 10.043C7.27791 9.75018 6.83591 9.71735 6.54305 9.96972C6.25018 10.2221 6.21735 10.6641 6.46972 10.957L7.53028 10.043ZM13.5797 7.39242C13.7964 7.07229 13.7126 6.63707 13.3924 6.42034C13.0723 6.20361 12.6371 6.28744 12.4203 6.60758L13.5797 7.39242ZM7 10.5C6.46972 10.957 6.46975 10.957 6.46978 10.957C6.4698 10.957 6.46983 10.9571 6.46987 10.9571C6.46995 10.9572 6.47005 10.9573 6.47018 10.9575C6.47043 10.9578 6.4708 10.9582 6.47126 10.9587C6.47219 10.9598 6.47352 10.9614 6.47526 10.9634C6.47873 10.9674 6.48379 10.9732 6.49035 10.9808C6.50347 10.996 6.52258 11.018 6.5469 11.0459C6.59553 11.1017 6.66509 11.1811 6.74935 11.2763C6.91753 11.4664 7.14581 11.7212 7.38392 11.9769C7.61997 12.2305 7.87434 12.4945 8.09266 12.6987C8.20023 12.7993 8.31244 12.8981 8.41714 12.9759C8.46871 13.0142 8.53357 13.0589 8.60578 13.0969C8.65644 13.1236 8.80539 13.2 9 13.2V11.8C9.09124 11.8 9.15912 11.8195 9.19095 11.8301C9.22595 11.8417 9.24929 11.8535 9.25814 11.8582C9.27472 11.8669 9.2742 11.8686 9.25218 11.8522C9.20969 11.8206 9.14189 11.7632 9.04899 11.6763C8.86638 11.5055 8.63804 11.2695 8.40866 11.0231C8.18134 10.7788 7.96147 10.5336 7.79787 10.3487C7.71623 10.2564 7.64899 10.1796 7.60229 10.126C7.57894 10.0992 7.56076 10.0783 7.54849 10.0641C7.54236 10.057 7.53771 10.0517 7.53465 10.0481C7.53311 10.0463 7.53197 10.045 7.53124 10.0442C7.53088 10.0437 7.53061 10.0434 7.53045 10.0432C7.53037 10.0432 7.53031 10.0431 7.53029 10.0431C7.53027 10.043 7.53027 10.043 7.53026 10.043C7.53027 10.043 7.53028 10.043 7 10.5ZM9 13.2C9.13992 13.2 9.2465 13.1592 9.29861 13.1362C9.35697 13.1104 9.4026 13.0815 9.43204 13.0613C9.4905 13.0211 9.53903 12.9776 9.57226 12.9461C9.64142 12.8805 9.71428 12.7995 9.78385 12.7179C9.92627 12.551 10.1046 12.3225 10.301 12.0615C10.6961 11.5364 11.1928 10.8413 11.6766 10.1522C12.1614 9.46182 12.6371 8.77197 12.9913 8.25511C13.1685 7.99658 13.3154 7.7811 13.4182 7.63017C13.4695 7.55471 13.5098 7.49537 13.5373 7.45486C13.5511 7.4346 13.5616 7.41904 13.5688 7.40852C13.5723 7.40326 13.575 7.39926 13.5769 7.39657C13.5778 7.39522 13.5785 7.3942 13.5789 7.3935C13.5792 7.39316 13.5793 7.39289 13.5795 7.39271C13.5795 7.39262 13.5796 7.39255 13.5796 7.3925C13.5796 7.39245 13.5797 7.39242 13 7C12.4203 6.60758 12.4203 6.60759 12.4203 6.60762C12.4203 6.60766 12.4202 6.60771 12.4202 6.60779C12.4201 6.60794 12.4199 6.60818 12.4197 6.6085C12.4193 6.60914 12.4186 6.61011 12.4177 6.61141C12.416 6.614 12.4134 6.61788 12.4099 6.62303C12.4029 6.63333 12.3925 6.64866 12.3789 6.66868C12.3517 6.70873 12.3118 6.76756 12.2608 6.84248C12.1588 6.99234 12.0127 7.20655 11.8365 7.46364C11.4839 7.97803 11.0115 8.66318 10.5308 9.34776C10.0492 10.0337 9.56318 10.7136 9.18232 11.2198C8.99074 11.4744 8.83285 11.6756 8.71871 11.8094C8.65999 11.8782 8.6245 11.9154 8.60873 11.9304C8.59951 11.9391 8.61142 11.9265 8.63958 11.9072C8.65386 11.8974 8.6859 11.8764 8.73231 11.8558C8.77246 11.8381 8.86872 11.8 9 11.8V13.2Z" fill="#06D6A0"/>
<rect x="0.7" y="0.7" width="18.6" height="18.6" rx="5.3" stroke="#06D6A0" stroke-width="1.4"/>
</svg>
