<svg width="20" height="20" viewBox="0 0 20 20" fill="none" xmlns="http://www.w3.org/2000/svg">
<path d="M11.6667 18.3333C11.6667 19.2533 10.92 20 10 20C9.08 20 8.33333 19.2533 8.33333 18.3333C8.33333 17.4133 9.08 16.6667 10 16.6667C10.92 16.6667 11.6667 17.4133 11.6667 18.3333ZM10 0C9.08 0 8.33333 0.746667 8.33333 1.66667C8.33333 2.58667 9.08 3.33333 10 3.33333C10.92 3.33333 11.6667 2.58667 11.6667 1.66667C11.6667 0.746667 10.92 0 10 0ZM18.3333 8.33333C19.2533 8.33333 20 9.08 20 10C20 10.92 19.2533 11.6667 18.3325 11.6667C17.4133 11.6667 16.6667 10.9208 16.6667 10C16.6667 9.07917 17.4133 8.33333 18.3333 8.33333ZM1.66583 9.16667C2.125 9.16667 2.5 9.54083 2.5 10C2.5 10.4592 2.12583 10.8333 1.66667 10.8333C1.2075 10.8333 0.833333 10.46 0.833333 10C0.833333 9.54 1.20667 9.16667 1.66583 9.16667ZM1.6675 8.33333H1.66583C0.745833 8.33333 0 9.08 0 10C0 10.9208 0.746667 11.6667 1.66667 11.6667H1.6675C2.5875 11.6667 3.33333 10.92 3.33333 10C3.33333 9.08 2.5875 8.33333 1.6675 8.33333ZM15.8333 2.5C16.7533 2.5 17.5 3.24667 17.5 4.16667C17.5 5.08667 16.7533 5.83333 15.8325 5.83333C14.9133 5.83333 14.1667 5.0875 14.1667 4.16667C14.1667 3.24583 14.9133 2.5 15.8333 2.5ZM15.8333 14.1667C16.7533 14.1667 17.5 14.9133 17.5 15.8333C17.5 16.7533 16.7533 17.5 15.8325 17.5C14.9133 17.5 14.1667 16.7542 14.1667 15.8333C14.1667 14.9125 14.9133 14.1667 15.8333 14.1667ZM4.16667 3.33333C4.62583 3.33333 5 3.70667 5 4.16667C5 4.62667 4.62583 5 4.16583 5C3.70667 5 3.33333 4.62667 3.33333 4.16667C3.33333 3.70667 3.7075 3.33333 4.16667 3.33333ZM4.16583 2.5C3.24583 2.5 2.5 3.24667 2.5 4.16667C2.5 5.08667 3.24667 5.83333 4.16583 5.83333H4.16667C5.08667 5.83333 5.83333 5.08667 5.83333 4.16667C5.83333 3.24667 5.08667 2.5 4.16583 2.5ZM4.16667 15C4.62583 15 5 15.3733 5 15.8333C5 16.2933 4.62583 16.6667 4.16583 16.6667C3.70667 16.6667 3.33333 16.2933 3.33333 15.8333C3.33333 15.3733 3.7075 15 4.16667 15ZM4.16583 14.1667C3.24583 14.1667 2.5 14.9133 2.5 15.8333C2.5 16.7533 3.24667 17.5 4.16583 17.5H4.16667C5.08667 17.5 5.83333 16.7533 5.83333 15.8333C5.83333 14.9133 5.08667 14.1667 4.16583 14.1667Z" fill="black" fill-opacity="0.4"/>
</svg>
