<svg width="20" height="20" viewBox="0 0 20 20" fill="none" xmlns="http://www.w3.org/2000/svg">
<path d="M8.03028 9.95972C7.77791 9.66685 7.33591 9.63402 7.04305 9.88639C6.75018 10.1388 6.71735 10.5808 6.96972 10.8736L8.03028 9.95972ZM13.0797 7.89242C13.2964 7.57229 13.2126 7.13707 12.8924 6.92034C12.5723 6.70361 12.1371 6.78744 11.9203 7.10758L13.0797 7.89242ZM7.5 10.4167C6.96972 10.8736 6.96974 10.8736 6.96977 10.8737C6.96979 10.8737 6.96982 10.8737 6.96986 10.8738C6.96993 10.8739 6.97001 10.874 6.97013 10.8741C6.97035 10.8743 6.97066 10.8747 6.97105 10.8752C6.97184 10.8761 6.97297 10.8774 6.97443 10.8791C6.97736 10.8825 6.98161 10.8874 6.98711 10.8937C6.99812 10.9064 7.01412 10.9249 7.03447 10.9482C7.07516 10.9949 7.13331 11.0613 7.20375 11.1409C7.34428 11.2998 7.53522 11.5128 7.73454 11.7269C7.9318 11.9389 8.14595 12.1612 8.33085 12.3341C8.42172 12.4191 8.51893 12.5049 8.61137 12.5736C8.6568 12.6073 8.71622 12.6484 8.78379 12.684C8.82981 12.7082 8.97494 12.7833 9.16667 12.7833V11.3833C9.25934 11.3833 9.3289 11.4031 9.36263 11.4144C9.39952 11.4266 9.42498 11.4394 9.43615 11.4453C9.45736 11.4564 9.46229 11.4617 9.4464 11.4499C9.41618 11.4274 9.36338 11.3829 9.28719 11.3117C9.13799 11.1721 8.94987 10.9778 8.75928 10.7731C8.57074 10.5705 8.38822 10.3669 8.25227 10.2132C8.18446 10.1366 8.12861 10.0728 8.08985 10.0283C8.07048 10.0061 8.0554 9.98875 8.04526 9.97704C8.04018 9.97118 8.03634 9.96674 8.03382 9.96382C8.03256 9.96236 8.03163 9.96128 8.03103 9.96059C8.03074 9.96025 8.03052 9.96 8.0304 9.95985C8.03033 9.95978 8.03029 9.95973 8.03027 9.95971C8.03026 9.9597 8.03026 9.9597 8.03026 9.95969C8.03027 9.9597 8.03028 9.95972 7.5 10.4167ZM9.16667 12.7833C9.30587 12.7833 9.41159 12.7428 9.4627 12.7202C9.52007 12.6948 9.56456 12.6666 9.59273 12.6473C9.64868 12.6088 9.69415 12.5679 9.72385 12.5397C9.78593 12.4808 9.84976 12.4097 9.90864 12.3407C10.0297 12.1988 10.18 12.0061 10.3441 11.7881C10.6745 11.3489 11.0893 10.7684 11.4926 10.1939C11.897 9.61807 12.2936 9.04281 12.589 8.61188C12.7367 8.39632 12.8593 8.21664 12.9449 8.09079C12.9877 8.02785 13.0214 7.97837 13.0443 7.94456C13.0558 7.92766 13.0646 7.91468 13.0705 7.90589C13.0735 7.9015 13.0758 7.89816 13.0773 7.8959C13.0781 7.89477 13.0786 7.89392 13.079 7.89334C13.0792 7.89305 13.0794 7.89282 13.0795 7.89267C13.0795 7.89259 13.0796 7.89253 13.0796 7.89249C13.0796 7.89245 13.0797 7.89242 12.5 7.5C11.9203 7.10758 11.9203 7.10759 11.9203 7.10761C11.9203 7.10764 11.9203 7.10768 11.9202 7.10775C11.9201 7.10787 11.92 7.10807 11.9198 7.10833C11.9195 7.10886 11.9189 7.10967 11.9182 7.11074C11.9167 7.11289 11.9146 7.11612 11.9117 7.1204C11.9058 7.12896 11.8972 7.14172 11.8859 7.15839C11.8633 7.19172 11.83 7.2407 11.7875 7.30309C11.7026 7.42789 11.5809 7.60629 11.4342 7.82041C11.1405 8.24886 10.7471 8.81943 10.3469 9.38942C9.94571 9.96077 9.54157 10.5261 9.22538 10.9463C9.06613 11.158 8.93625 11.3234 8.84349 11.4321C8.79547 11.4884 8.76901 11.5158 8.76031 11.524C8.75463 11.5294 8.7696 11.5142 8.80028 11.4931C8.81582 11.4824 8.849 11.4608 8.8964 11.4398C8.93755 11.4216 9.03467 11.3833 9.16667 11.3833V12.7833Z" fill="black"/>
<rect x="2.36675" y="2.36675" width="15.2667" height="15.2667" rx="5.3" stroke="black" stroke-width="1.4"/>
</svg>
