<svg width="20" height="17" viewBox="0 0 20 17" fill="none" xmlns="http://www.w3.org/2000/svg">
<path d="M4.81029 12.3247C4.91274 10.8904 6.21481 9.84502 7.64828 9.95836C8.35288 10.0141 9.11959 10.0554 9.84369 10.0554C10.6507 10.0554 11.5519 10.0041 12.3724 9.9387C13.8007 9.82491 15.0863 10.873 15.1884 12.3022V12.3022C15.3118 14.0301 13.9434 15.4998 12.2111 15.4998H9.84369H7.76671C6.04661 15.4998 4.68774 14.0404 4.81029 12.3247V12.3247Z" stroke="black" stroke-width="1.4"/>
<path d="M7.0835 4.24992C7.0835 2.63909 8.38933 1.33325 10.0002 1.33325V1.33325C11.611 1.33325 12.9168 2.63909 12.9168 4.24992V4.66658C12.9168 6.0473 11.7975 7.16659 10.4168 7.16659V7.16659H9.5835V7.16659C8.20278 7.16659 7.0835 6.0473 7.0835 4.66659V4.24992Z" stroke="black" stroke-width="1.4"/>
<path d="M17.0835 9.6665C17.0835 9.6665 18.3335 10.1812 18.3335 11.7498C18.3335 13.3185 17.0835 13.8332 17.0835 13.8332" stroke="black" stroke-width="1.4" stroke-linecap="round" stroke-linejoin="round"/>
<path d="M2.91675 9.6665C2.91675 9.6665 1.66675 10.0832 1.66675 11.7498C1.66675 13.4165 2.91675 13.8332 2.91675 13.8332" stroke="black" stroke-width="1.4" stroke-linecap="round" stroke-linejoin="round"/>
<path d="M15 1.75C15 1.75 16.6667 2.09546 16.6667 3.83333C16.6667 5.57121 15 5.91667 15 5.91667" stroke="black" stroke-width="1.4" stroke-linecap="round" stroke-linejoin="round"/>
<path d="M5 1.75C5 1.75 3.33333 2.02853 3.33333 3.83333C3.33333 5.63813 5 5.91667 5 5.91667" stroke="black" stroke-width="1.4" stroke-linecap="round" stroke-linejoin="round"/>
</svg>
