<svg width="22" height="17" viewBox="0 0 22 17" fill="none" xmlns="http://www.w3.org/2000/svg">
<path d="M0.999852 8H6.99985C7.26507 8 7.51942 7.89464 7.70696 7.70711C7.8945 7.51957 7.99985 7.26522 7.99985 7V1C7.99985 0.734784 7.8945 0.48043 7.70696 0.292893C7.51942 0.105357 7.26507 0 6.99985 0H0.999852C0.734636 0 0.480282 0.105357 0.292746 0.292893C0.105209 0.48043 -0.000147543 0.734784 -0.000147543 1V7C-0.000147543 7.26522 0.105209 7.51957 0.292746 7.70711C0.480282 7.89464 0.734636 8 0.999852 8ZM1.99985 2H5.99985V6H1.99985V2ZM21.9999 4C21.9999 4.26522 21.8945 4.51957 21.707 4.70711C21.5194 4.89464 21.2651 5 20.9999 5H10.9999C10.7346 5 10.4803 4.89464 10.2927 4.70711C10.1052 4.51957 9.99985 4.26522 9.99985 4C9.99985 3.73478 10.1052 3.48043 10.2927 3.29289C10.4803 3.10536 10.7346 3 10.9999 3H20.9999C21.2651 3 21.5194 3.10536 21.707 3.29289C21.8945 3.48043 21.9999 3.73478 21.9999 4ZM21.9999 14C21.9999 14.2652 21.8945 14.5196 21.707 14.7071C21.5194 14.8946 21.2651 15 20.9999 15H10.9999C10.7346 15 10.4803 14.8946 10.2927 14.7071C10.1052 14.5196 9.99985 14.2652 9.99985 14C9.99985 13.7348 10.1052 13.4804 10.2927 13.2929C10.4803 13.1054 10.7346 13 10.9999 13H20.9999C21.2651 13 21.5194 13.1054 21.707 13.2929C21.8945 13.4804 21.9999 13.7348 21.9999 14ZM2.23485 16.7L0.280852 14.673C0.0963944 14.4823 -0.00475719 14.2262 -0.00035008 13.9609C0.00405703 13.6956 0.113662 13.443 0.304352 13.2585C0.495043 13.074 0.751199 12.9729 1.01647 12.9773C1.28174 12.9817 1.53439 13.0913 1.71885 13.282L2.97085 14.582L6.29985 11.289C6.3908 11.1866 6.50181 11.104 6.62601 11.0462C6.75021 10.9885 6.88494 10.9569 7.02185 10.9534C7.15877 10.9499 7.29495 10.9745 7.42195 11.0258C7.54894 11.0771 7.66405 11.1539 7.76014 11.2515C7.85623 11.3491 7.93124 11.4654 7.98054 11.5931C8.02983 11.7209 8.05234 11.8575 8.04669 11.9943C8.04104 12.1312 8.00734 12.2654 7.94767 12.3887C7.88801 12.5119 7.80366 12.6217 7.69985 12.711L3.65385 16.711C3.46743 16.8954 3.21605 16.9992 2.95385 17H2.94185C2.81005 16.9991 2.67974 16.9721 2.5584 16.9206C2.43707 16.8691 2.32711 16.7941 2.23485 16.7Z" fill="#A5A9B8"/>
</svg>
