<svg width="17" height="17" viewBox="0 0 17 17" fill="none" xmlns="http://www.w3.org/2000/svg">
<path d="M13 10.4999C13 10.4999 15.5 10.0833 15.5 12.0125C15.9167 15.5 13 15.0833 13 15.0833" stroke="black" stroke-width="1.4" stroke-linecap="round" stroke-linejoin="round"/>
<path d="M11.0929 1.45378C11.0929 1.45378 12.8807 1.32781 13.1226 3.35328C13.3645 5.37874 11.5871 5.59104 11.5871 5.59104" stroke="black" stroke-width="1.4" stroke-linecap="round" stroke-linejoin="round"/>
<path d="M0.707851 12.59C0.820522 11.0127 2.25284 9.86499 3.83017 9.97853C4.4593 10.0238 5.12609 10.0555 5.7602 10.0555C6.48116 10.0555 7.27733 10.0145 8.02393 9.95921C9.59652 9.84264 11.0115 10.9945 11.1239 12.5674V12.5674C11.2371 14.1521 9.98199 15.5 8.39328 15.5H5.7602H3.41733C1.8409 15.5 0.595535 14.1625 0.707851 12.59V12.59Z" stroke="black" stroke-width="1.4"/>
<path d="M3 4.25004C3 2.63921 4.30584 1.33337 5.91667 1.33337V1.33337C7.5275 1.33337 8.83333 2.63921 8.83333 4.25004V4.66671C8.83333 6.04742 7.71405 7.16671 6.33333 7.16671V7.16671H5.5V7.16671C4.11929 7.16671 3 6.04742 3 4.66671V4.25004Z" stroke="black" stroke-width="1.4"/>
</svg>
