<svg width="20" height="20" viewBox="0 0 20 20" fill="none" xmlns="http://www.w3.org/2000/svg">
<path d="M19.1668 10.8332V17.4999C19.1668 17.7209 19.079 17.9329 18.9228 18.0892C18.7665 18.2454 18.5545 18.3332 18.3335 18.3332H1.66683C1.44582 18.3332 1.23385 18.2454 1.07757 18.0892C0.921293 17.9329 0.833496 17.7209 0.833496 17.4999V10.8332C0.833496 10.6122 0.921293 10.4003 1.07757 10.244C1.23385 10.0877 1.44582 9.9999 1.66683 9.9999C1.88784 9.9999 2.0998 10.0877 2.25609 10.244C2.41237 10.4003 2.50016 10.6122 2.50016 10.8332V16.6666H17.5002V10.8332C17.5002 10.6122 17.588 10.4003 17.7442 10.244C17.9005 10.0877 18.1125 9.9999 18.3335 9.9999C18.5545 9.9999 18.7665 10.0877 18.9228 10.244C19.079 10.4003 19.1668 10.6122 19.1668 10.8332ZM10.0002 14.9999C10.2212 14.9999 10.4331 14.9121 10.5894 14.7558C10.7457 14.5995 10.8335 14.3876 10.8335 14.1666V4.51157L12.7443 6.4224C12.9015 6.5742 13.112 6.6582 13.3305 6.6563C13.549 6.6544 13.758 6.56676 13.9125 6.41225C14.067 6.25775 14.1547 6.04874 14.1566 5.83024C14.1585 5.61174 14.0745 5.40124 13.9227 5.24407L10.5893 1.91074C10.4331 1.75451 10.2211 1.66675 10.0002 1.66675C9.77919 1.66675 9.56727 1.75451 9.411 1.91074L6.07766 5.24407C5.99807 5.32094 5.93459 5.4129 5.89091 5.51457C5.84724 5.61624 5.82425 5.72559 5.82329 5.83624C5.82233 5.94689 5.84341 6.05662 5.88531 6.15903C5.92721 6.26145 5.98909 6.35449 6.06733 6.43273C6.14558 6.51098 6.23862 6.57285 6.34103 6.61475C6.44345 6.65666 6.55318 6.67774 6.66383 6.67678C6.77448 6.67582 6.88383 6.65283 6.9855 6.60915C7.08717 6.56548 7.17912 6.502 7.256 6.4224L9.16683 4.51157V14.1666C9.16683 14.3876 9.25463 14.5995 9.41091 14.7558C9.56719 14.9121 9.77915 14.9999 10.0002 14.9999Z" fill="#0496FF"/>
</svg>
