<svg width="20" height="18" viewBox="0 0 20 18" fill="none" xmlns="http://www.w3.org/2000/svg">
<path d="M19.1666 9.83348V16.5001C19.1666 16.7212 19.0788 16.9331 18.9226 17.0894C18.7663 17.2457 18.5543 17.3335 18.3333 17.3335H1.66665C1.44563 17.3335 1.23367 17.2457 1.07739 17.0894C0.92111 16.9331 0.833313 16.7212 0.833313 16.5001V9.83348C0.833313 9.61247 0.92111 9.40051 1.07739 9.24423C1.23367 9.08794 1.44563 9.00015 1.66665 9.00015C1.88766 9.00015 2.09962 9.08794 2.2559 9.24423C2.41218 9.40051 2.49998 9.61247 2.49998 9.83348V15.6668H17.5V9.83348C17.5 9.61247 17.5878 9.40051 17.7441 9.24423C17.9003 9.08794 18.1123 9.00015 18.3333 9.00015C18.5543 9.00015 18.7663 9.08794 18.9226 9.24423C19.0788 9.40051 19.1666 9.61247 19.1666 9.83348ZM9.99998 14.0001C10.221 14.0001 10.433 13.9124 10.5892 13.7561C10.7455 13.5998 10.8333 13.3878 10.8333 13.1668V3.51181L12.7441 5.42265C12.9013 5.57445 13.1118 5.65844 13.3303 5.65654C13.5488 5.65464 13.7578 5.567 13.9123 5.4125C14.0668 5.25799 14.1545 5.04898 14.1564 4.83048C14.1583 4.61198 14.0743 4.40148 13.9225 4.24431L10.5891 0.910981C10.4329 0.754755 10.2209 0.666992 9.99998 0.666992C9.77901 0.666992 9.56709 0.754755 9.41081 0.910981L6.07748 4.24431C5.99789 4.32119 5.9344 4.41314 5.89073 4.51481C5.84705 4.61648 5.82407 4.72583 5.8231 4.83648C5.82214 4.94713 5.84323 5.05686 5.88513 5.15928C5.92703 5.26169 5.98891 5.35473 6.06715 5.43298C6.14539 5.51122 6.23844 5.5731 6.34085 5.615C6.44326 5.6569 6.553 5.67798 6.66365 5.67702C6.7743 5.67606 6.88365 5.65307 6.98532 5.6094C7.08699 5.56572 7.17894 5.50224 7.25581 5.42265L9.16665 3.51181V13.1668C9.16665 13.3878 9.25444 13.5998 9.41072 13.7561C9.567 13.9124 9.77896 14.0001 9.99998 14.0001Z" fill="#0496FF"/>
</svg>
