<svg width="32" height="32" viewBox="0 0 32 32" fill="none" xmlns="http://www.w3.org/2000/svg">
<circle cx="16" cy="16" r="16" fill="#F4F5F7"/>
<path d="M9.6701 20.4355C9.8374 18.91 11.2155 17.8126 12.746 17.9249C13.7275 17.9969 14.8331 18.0559 15.8218 18.0559C16.8537 18.0559 17.998 17.9916 18.9929 17.9154C20.4499 17.8036 21.7878 18.7849 22.0557 20.2214V20.2214C22.3737 21.9259 21.0657 23.5003 19.3319 23.5003L15.8218 23.5003H12.4172C10.7717 23.5003 9.49071 22.0712 9.6701 20.4355V20.4355Z" stroke="#222628" stroke-width="1.4"/>
<path d="M12.668 11.8333C12.668 9.99238 14.1604 8.5 16.0013 8.5V8.5C17.8423 8.5 19.3346 9.99238 19.3346 11.8333V12.3095C19.3346 13.8875 18.0554 15.1667 16.4775 15.1667V15.1667H15.5251V15.1667C13.9472 15.1667 12.668 13.8875 12.668 12.3095V11.8333Z" stroke="#222628" stroke-width="1.4"/>
</svg>
